<svg width="66" height="87" viewBox="0 0 66 87" fill="none" xmlns="http://www.w3.org/2000/svg">
<path d="M12.2114 25.2075L16.5167 30.1981L55.8811 7.54079L47.2122 5.06213L42.907 0.0715332L3.5426 22.7288L12.2114 25.2075Z" fill="white"/>
<path d="M4.052 22.6776L12.4372 25.0731L16.6006 29.9056L35.9907 18.7433L55.3726 7.58937L46.9874 5.18557L42.824 0.361328L23.4338 11.5236L4.052 22.6776Z" fill="#CAD2DA"/>
<path d="M42.8237 0.361328V14.8091L55.3723 7.58937L46.9871 5.18557L42.8237 0.361328Z" fill="#B2C4D3"/>
<path d="M46.9698 12.4404L55.3717 7.59118L46.9698 5.18738V12.4404Z" fill="#BCCDD8"/>
<path d="M55.8804 7.5412L58.784 60.1753L15.0559 85.3445L10.2751 79.805L0.638428 77.0518L3.54195 22.7292L12.2108 25.2079L16.516 30.1985L55.8804 7.5412Z" fill="#EEF0F3"/>
<path d="M15.0559 85.3433L10.2751 79.8037L0.638428 77.0506L3.54195 22.728L12.2108 25.2066L16.516 30.1972L15.0559 85.3433Z" fill="#BCCDD8"/>
<path d="M15.0567 85.3439L10.2759 79.8044L12.2116 25.2073L16.5168 30.1979L15.0567 85.3439Z" fill="#B2C4D3"/>
<path d="M46.6198 38.6075L40.5207 42.1175V35.0891L33.6791 39.0234V46.0518L27.5717 49.5701V57.4387L33.6791 53.9203V60.957L40.5207 57.0144V49.986L46.6198 46.476V38.6075Z" fill="#00897C"/>
<path d="M16.725 29.9074L15.0563 85.3445L16.4747 29.899L16.725 29.9074Z" fill="white"/>
<path d="M44.2927 18.2118C44.2927 17.6961 43.9339 17.4882 43.4834 17.746C43.0328 18.0039 42.6741 18.6277 42.6741 19.1434C42.6741 19.6591 43.0328 19.867 43.4834 19.6092C43.9256 19.3513 44.2927 18.7275 44.2927 18.2118Z" fill="#4C4C4C"/>
<path d="M44.1331 18.3024C44.1331 17.8865 43.8411 17.7201 43.4823 17.9281C43.1236 18.136 42.8315 18.6434 42.8315 19.0593C42.8315 19.4752 43.1236 19.6415 43.4823 19.4336C43.8411 19.2256 44.1331 18.7183 44.1331 18.3024Z" fill="#ADBCC1"/>
<path d="M43.8334 18.4778C43.8334 18.2616 43.6749 18.1701 43.483 18.2782C43.2911 18.3947 43.1409 18.6608 43.1326 18.8771C43.1326 19.0933 43.2827 19.1848 43.483 19.0767C43.6749 18.9686 43.8251 18.7024 43.8334 18.4778Z" fill="#14161A"/>
<path d="M30.2148 26.3123C30.2148 25.7966 29.8561 25.5887 29.4055 25.8465C28.9633 26.1044 28.5962 26.7282 28.5962 27.2439C28.5962 27.7596 28.955 27.9675 29.4055 27.7097C29.8477 27.4518 30.2148 26.828 30.2148 26.3123Z" fill="#4C4C4C"/>
<path d="M30.0634 26.3958C30.0634 25.9799 29.7714 25.8136 29.4126 26.0215C29.0539 26.2295 28.7618 26.7368 28.7618 27.1527C28.7618 27.5686 29.0539 27.735 29.4126 27.527C29.7714 27.3191 30.0634 26.8117 30.0634 26.3958Z" fill="#ADBCC1"/>
<path d="M29.757 26.578C29.757 26.3534 29.5985 26.2703 29.415 26.3784C29.2231 26.4865 29.0729 26.7527 29.0729 26.9773C29.0729 27.1935 29.2231 27.285 29.415 27.1769C29.6069 27.0688 29.757 26.7943 29.757 26.578Z" fill="#14161A"/>
<g style="mix-blend-mode:multiply">
<path d="M34.2635 37.6928C33.5877 37.6928 33.0287 37.5181 32.5948 37.2936C30.267 36.0792 28.9571 32.1283 29.1823 26.988C29.1823 26.8549 29.3075 26.7551 29.4327 26.7551C29.5661 26.7551 29.6746 26.8715 29.6663 27.0046C29.4493 31.9536 30.6591 35.7298 32.8201 36.861C34.1634 37.5597 35.8404 37.1938 37.676 35.8047C43.0992 31.6875 43.3829 22.5464 43.2578 18.8034C43.2578 18.6703 43.3579 18.5539 43.4914 18.5539C43.6416 18.5539 43.7417 18.6537 43.7417 18.7868C43.9002 23.3199 43.3412 27.2209 42.0897 30.3982C40.8382 33.5589 39.1611 35.2973 37.9763 36.1956C36.4829 37.3268 35.248 37.7011 34.2635 37.7011V37.6928Z" fill="url(#paint0_linear_779_13134)"/>
</g>
<path d="M35.2475 35.089C34.4298 35.089 33.7373 34.881 33.1867 34.6149C30.8422 33.4837 29.2319 30.4145 29.1735 26.9959C29.1735 26.8628 29.2819 26.7547 29.4154 26.7464C29.5489 26.7464 29.6574 26.8545 29.6574 26.9876C29.7074 30.1816 31.2426 33.1343 33.3952 34.174C35.0723 34.9809 36.9829 34.6315 38.927 33.1593C41.7971 30.9801 43.5743 25.0828 43.2489 18.803C43.2489 18.6699 43.349 18.5535 43.4825 18.5452C43.616 18.5452 43.7328 18.645 43.7411 18.7781C44.0832 25.3074 42.2643 31.2379 39.2273 33.5419C37.7005 34.6981 36.3572 35.089 35.2475 35.089Z" fill="#50B09B"/>
<path d="M45.8019 43.1729V70.1221C45.6851 71.6442 46.6363 73.1913 48.6554 74.3557C52.4767 76.5516 58.6675 76.5516 62.4888 74.3557C64.3995 73.2578 65.3506 71.8189 65.3506 70.3716V43.1646H45.7936L45.8019 43.1729Z" fill="#C6C6C6"/>
<path d="M62.4958 39.1884C66.3171 41.3843 66.3171 44.9525 62.4958 47.1484C58.6745 49.3443 52.4837 49.3443 48.6624 47.1484C44.8411 44.9525 44.8411 41.3843 48.6624 39.1884C52.4837 36.9925 58.6745 36.9925 62.4958 39.1884Z" fill="#EDEDED"/>
<path d="M49.5904 37.0923V41.301C49.5153 42.2326 50.0994 43.1808 51.3425 43.8961C53.6787 45.2436 57.475 45.2436 59.8195 43.8961C60.9876 43.2224 61.5716 42.3407 61.5716 41.4591V37.0923H49.5987H49.5904Z" fill="#436975"/>
<path d="M59.8113 34.6552C62.1474 36.0027 62.1474 38.1819 59.8113 39.5294C57.4751 40.8769 53.6788 40.8769 51.3343 39.5294C48.9898 38.1819 48.9898 36.0027 51.3343 34.6552C53.6705 33.3078 57.4667 33.3078 59.8113 34.6552Z" fill="#73B4C9"/>
<path d="M62.4969 50.8332C58.6756 53.0291 52.4848 53.0291 48.6635 50.8332C46.8112 49.7686 45.8601 48.3795 45.81 46.9821V66.4455C45.6932 67.9676 46.6443 69.5147 48.6635 70.6791C52.4848 72.875 58.6756 72.875 62.4969 70.6791C64.4076 69.5812 65.3587 68.1422 65.3587 66.695V46.8491C65.3587 48.288 64.3992 49.727 62.4969 50.8332Z" fill="#73B4C9"/>
<path d="M62.4969 52.697C58.6756 54.8929 52.4848 54.8929 48.6635 52.697C46.8112 51.6323 45.8601 50.2433 45.81 48.8459V64.5829C45.6932 66.1051 46.6443 67.6521 48.6635 68.8166C52.4848 71.0125 58.6756 71.0125 62.4969 68.8166C64.4076 67.7187 65.3587 66.2797 65.3587 64.8325V48.7045C65.3587 50.1435 64.3992 51.5824 62.4969 52.6887V52.697Z" fill="#436975"/>
<path d="M55.5811 69.1575C53.1949 69.1575 50.9755 68.6335 49.3235 67.6853C47.8468 66.8369 47.0458 65.739 47.1292 64.691V64.5911V53.2791C47.4046 53.4788 47.6882 53.6617 48.0053 53.8447C50.0494 55.0258 52.7444 55.6746 55.5811 55.6746C58.4179 55.6746 61.1128 55.0258 63.157 53.8447C63.474 53.6617 63.7661 53.4704 64.0414 53.2708V64.8407C64.0414 65.8388 63.2404 66.8785 61.8387 67.6853C60.1867 68.6335 57.9674 69.1575 55.5811 69.1575Z" fill="#73B4C9"/>
<path d="M50.4982 64.3826C50.3898 64.8317 50.2813 65.2892 50.1729 65.7383C51.6997 66.62 53.6354 67.1607 55.6545 67.1523C57.6152 67.1523 59.4925 66.6367 60.986 65.7883C60.8775 65.3391 60.769 64.8899 60.6606 64.4408C57.8321 66.3039 53.2766 66.279 50.4899 64.3909L50.4982 64.3826Z" fill="#436975"/>
<path d="M58.784 60.1741C58.784 62.2535 57.3489 63.9337 55.5801 63.9337C53.8113 63.9337 52.3762 62.2535 52.3762 60.1741C52.3762 58.0947 53.8113 56.4146 55.5801 56.4146C57.3489 56.4146 58.784 58.0947 58.784 60.1741Z" fill="white"/>
<path d="M58.9762 80.1611L38.6766 86.8236C37.884 87.0814 36.7493 86.8485 36.1235 86.2912L25.9445 77.225C25.3271 76.676 25.4606 76.0189 26.2532 75.7528L46.5528 69.0903C47.3455 68.8325 48.4802 69.0654 49.1059 69.6227L59.2849 78.6889C59.9023 79.2379 59.7689 79.895 58.9762 80.1611Z" fill="#6D6D6D"/>
<path d="M59.0429 79.8289L38.7433 86.4913C37.9506 86.7492 36.8159 86.5163 36.1902 85.959L26.0111 76.8928C25.3937 76.3438 25.5272 75.6867 26.3199 75.4205L46.6195 68.7581C47.4121 68.5003 48.5468 68.7332 49.1726 69.2904L59.3516 78.3567C59.969 78.9056 59.8355 79.5627 59.0429 79.8289Z" fill="#C0C0C0"/>
<path d="M42.889 70.9949L44.6578 70.4126C44.783 70.371 44.9415 70.4126 45.1 70.554C45.4087 70.8285 45.5923 71.3775 45.5089 71.7767C45.4671 71.9763 45.3754 72.0928 45.2502 72.1427L43.4814 72.7249C43.4814 72.7249 43.4564 72.7332 43.4397 72.7332C42.9724 72.8663 42.4718 72.6085 42.3133 72.1427C42.1548 71.6603 42.4134 71.1446 42.8974 70.9865L42.889 70.9949Z" fill="white"/>
<path d="M45.1079 70.5466C45.4166 70.8211 45.6002 71.3701 45.5168 71.7693C45.475 71.969 45.3833 72.0854 45.2581 72.1353L46.6932 71.6612L47.4608 71.4117C47.4608 71.4117 47.5025 71.395 47.5192 71.3867C47.9614 71.212 48.2034 70.7213 48.0615 70.2638C47.9113 69.7814 47.394 69.5152 46.9101 69.665L46.1091 69.9311L44.6741 70.4052C44.7992 70.3636 44.9578 70.4052 45.1163 70.5466H45.1079Z" fill="#CF4518"/>
<path d="M45.7187 73.5323L47.4875 72.95C47.6127 72.9084 47.7712 72.95 47.9297 73.0914C48.2384 73.3659 48.422 73.9149 48.3386 74.3141C48.2968 74.5138 48.2051 74.6302 48.0799 74.6801L46.3111 75.2623C46.3111 75.2623 46.2861 75.2707 46.2694 75.2707C45.8022 75.4037 45.3016 75.1459 45.143 74.6801C44.9845 74.1977 45.2431 73.682 45.7271 73.524L45.7187 73.5323Z" fill="white"/>
<path d="M47.9296 73.0823C48.2383 73.3568 48.4218 73.9057 48.3384 74.305C48.2967 74.5046 48.2049 74.621 48.0798 74.671L49.5148 74.1968L50.2824 73.9473C50.2824 73.9473 50.3242 73.9307 50.3408 73.9224C50.783 73.7477 51.025 73.2569 50.8832 72.7995C50.733 72.3171 50.2157 72.0509 49.7318 72.2006L48.9308 72.4668L47.4957 72.9409C47.6209 72.8993 47.7794 72.9409 47.9379 73.0823H47.9296Z" fill="#CF4518"/>
<path d="M48.5461 76.0705L50.3149 75.4882C50.4401 75.4467 50.5986 75.4882 50.7571 75.6296C51.0658 75.9041 51.2494 76.4531 51.166 76.8523C51.1242 77.052 51.0325 77.1684 50.9073 77.2183L49.1385 77.8006C49.1385 77.8006 49.1135 77.8089 49.0968 77.8089C48.6296 77.942 48.1289 77.6841 47.9704 77.2183C47.8119 76.7359 48.0705 76.2202 48.5545 76.0622L48.5461 76.0705Z" fill="white"/>
<path d="M50.757 75.6293C51.0657 75.9038 51.2492 76.4527 51.1658 76.852C51.1241 77.0516 51.0323 77.168 50.9072 77.2179L52.3422 76.7438L53.1098 76.4943C53.1098 76.4943 53.1516 76.4777 53.1682 76.4694C53.6104 76.2947 53.8524 75.8039 53.7106 75.3465C53.5604 74.8641 53.0431 74.5979 52.5592 74.7476L51.7582 75.0138L50.3231 75.4879C50.4483 75.4463 50.6068 75.4879 50.7653 75.6293H50.757Z" fill="#CF4518"/>
<path d="M51.376 78.6149L53.1448 78.0326C53.2699 77.991 53.4284 78.0326 53.587 78.174C53.8957 78.4485 54.0792 78.9975 53.9958 79.3967C53.9541 79.5963 53.8623 79.7128 53.7371 79.7627L51.9683 80.3449C51.9683 80.3449 51.9433 80.3532 51.9266 80.3532C51.4594 80.4863 50.9588 80.2285 50.8003 79.7627C50.6417 79.2803 50.9004 78.7646 51.3843 78.6065L51.376 78.6149Z" fill="white"/>
<path d="M53.5868 78.1648C53.8955 78.4393 54.0791 78.9882 53.9956 79.3875C53.9539 79.5871 53.8621 79.7036 53.737 79.7535L55.1721 79.2794L55.9397 79.0298C55.9397 79.0298 55.9814 79.0132 55.9981 79.0049C56.4403 78.8302 56.6822 78.3395 56.5404 77.882C56.3902 77.3996 55.8729 77.1334 55.389 77.2831L54.588 77.5493L53.153 78.0234C53.2781 77.9818 53.4366 78.0234 53.5952 78.1648H53.5868Z" fill="#CF4518"/>
<path d="M36.2237 73.1925L37.9925 72.6103C38.1177 72.5687 38.2762 72.6103 38.4347 72.7517C38.7435 73.0261 38.927 73.5751 38.8436 73.9743C38.8019 74.174 38.7101 74.2904 38.5849 74.3403L36.8161 74.9226C36.8161 74.9226 36.7911 74.9309 36.7744 74.9309C36.3072 75.064 35.8066 74.8061 35.648 74.3403C35.4895 73.8579 35.7482 73.3422 36.2321 73.1842L36.2237 73.1925Z" fill="white"/>
<path d="M38.4346 72.7513C38.7433 73.0258 38.9269 73.5748 38.8434 73.974C38.8017 74.1737 38.7099 74.2901 38.5848 74.34L40.0198 73.8659L40.7874 73.6164C40.7874 73.6164 40.8292 73.5997 40.8458 73.5914C41.2881 73.4168 41.53 72.926 41.3882 72.4685C41.238 71.9861 40.7207 71.72 40.2368 71.8697L39.4358 72.1358L38.0007 72.6099C38.1259 72.5684 38.2844 72.6099 38.4429 72.7513H38.4346Z" fill="#CF4518"/>
<path d="M39.0536 75.7385L40.8224 75.1562C40.9475 75.1146 41.1061 75.1562 41.2646 75.2976C41.5733 75.5721 41.7568 76.1211 41.6734 76.5203C41.6317 76.7199 41.5399 76.8364 41.4148 76.8863L39.6459 77.4685C39.6459 77.4685 39.6209 77.4768 39.6042 77.4768C39.137 77.6099 38.6364 77.3521 38.4779 76.8863C38.3193 76.4039 38.578 75.8882 39.0619 75.7301L39.0536 75.7385Z" fill="white"/>
<path d="M41.2644 75.2885C41.5731 75.5629 41.7567 76.1119 41.6733 76.5111C41.6315 76.7108 41.5398 76.8272 41.4146 76.8771L42.8497 76.403L43.6173 76.1535C43.6173 76.1535 43.659 76.1369 43.6757 76.1285C44.1179 75.9539 44.3598 75.4631 44.218 75.0056C44.0678 74.5232 43.5505 74.2571 43.0666 74.4068L42.2656 74.6729L40.8306 75.1471C40.9557 75.1055 41.1142 75.1471 41.2728 75.2885H41.2644Z" fill="#CF4518"/>
<path d="M41.881 78.274L43.6498 77.6918C43.7749 77.6502 43.9334 77.6918 44.092 77.8332C44.4007 78.1077 44.5842 78.6566 44.5008 79.0559C44.4591 79.2555 44.3673 79.372 44.2422 79.4219L42.4733 80.0041C42.4733 80.0041 42.4483 80.0124 42.4316 80.0124C41.9644 80.1455 41.4638 79.8877 41.3053 79.4219C41.1467 78.9394 41.4054 78.4238 41.8893 78.2657L41.881 78.274Z" fill="white"/>
<path d="M44.0918 77.824C44.4005 78.0985 44.5841 78.6474 44.5006 79.0467C44.4589 79.2463 44.3671 79.3627 44.242 79.4126L45.6771 78.9385L46.4447 78.689C46.4447 78.689 46.4864 78.6724 46.5031 78.6641C46.9453 78.4894 47.1872 77.9986 47.0454 77.5412C46.8952 77.0588 46.3779 76.7926 45.894 76.9423L45.093 77.2085L43.658 77.6826C43.7831 77.641 43.9416 77.6826 44.1002 77.824H44.0918Z" fill="#CF4518"/>
<path d="M44.7015 80.8106L46.4703 80.2284C46.5955 80.1868 46.754 80.2284 46.9125 80.3698C47.2212 80.6442 47.4048 81.1932 47.3214 81.5925C47.2796 81.7921 47.1879 81.9085 47.0627 81.9584L45.2939 82.5407C45.2939 82.5407 45.2689 82.549 45.2522 82.549C44.7849 82.6821 44.2843 82.4242 44.1258 81.9584C43.9673 81.476 44.2259 80.9603 44.7099 80.8023L44.7015 80.8106Z" fill="white"/>
<path d="M46.9124 80.3694C47.2211 80.6439 47.4046 81.1928 47.3212 81.5921C47.2795 81.7917 47.1877 81.9081 47.0626 81.9581L48.4976 81.4839L49.2652 81.2344C49.2652 81.2344 49.3069 81.2178 49.3236 81.2095C49.7658 81.0348 50.0078 80.5441 49.866 80.0866C49.7158 79.6042 49.1985 79.338 48.7146 79.4877L47.9136 79.7539L46.4785 80.228C46.6037 80.1864 46.7622 80.228 46.9207 80.3694H46.9124Z" fill="#CF4518"/>
<path d="M29.5586 75.3949L31.3274 74.8127C31.4525 74.7711 31.6111 74.8127 31.7696 74.9541C32.0783 75.2286 32.2618 75.7776 32.1784 76.1768C32.1367 76.3764 32.0449 76.4929 31.9198 76.5428L30.151 77.125C30.151 77.125 30.1259 77.1333 30.1092 77.1333C29.642 77.2664 29.1414 77.0086 28.9829 76.5428C28.8243 76.0604 29.083 75.5447 29.5669 75.3866L29.5586 75.3949Z" fill="white"/>
<path d="M31.7714 74.9467C32.0801 75.2211 32.2636 75.7701 32.1802 76.1694C32.1385 76.369 32.0467 76.4854 31.9216 76.5353L33.3566 76.0612L34.1242 75.8117C34.1242 75.8117 34.166 75.7951 34.1826 75.7867C34.6248 75.6121 34.8668 75.1213 34.725 74.6639C34.5748 74.1814 34.0575 73.9153 33.5736 74.065L32.7726 74.3312L31.3375 74.8053C31.4627 74.7637 31.6212 74.8053 31.7797 74.9467H31.7714Z" fill="#CF4518"/>
<path d="M32.3864 77.9321L34.1553 77.3498C34.2804 77.3082 34.4389 77.3498 34.5975 77.4912C34.9062 77.7657 35.0897 78.3147 35.0063 78.7139C34.9646 78.9135 34.8728 79.03 34.7476 79.0799L32.9788 79.6621C32.9788 79.6621 32.9538 79.6704 32.9371 79.6704C32.4699 79.8035 31.9693 79.5457 31.8108 79.0799C31.6522 78.5975 31.9109 78.0818 32.3948 77.9237L32.3864 77.9321Z" fill="white"/>
<path d="M34.5994 77.4909C34.9081 77.7653 35.0916 78.3143 35.0082 78.7135C34.9665 78.9132 34.8747 79.0296 34.7496 79.0795L36.1846 78.6054L36.9522 78.3559C36.9522 78.3559 36.994 78.3392 37.0106 78.3309C37.4528 78.1563 37.6948 77.6655 37.553 77.208C37.4028 76.7256 36.8855 76.4595 36.4016 76.6092L35.6006 76.8753L34.1655 77.3495C34.2907 77.3079 34.4492 77.3495 34.6077 77.4909H34.5994Z" fill="#CF4518"/>
<path d="M35.2066 80.4701L36.9754 79.8879C37.1006 79.8463 37.2591 79.8879 37.4177 80.0293C37.7264 80.3038 37.9099 80.8528 37.8265 81.252C37.7848 81.4516 37.693 81.5681 37.5678 81.618L35.799 82.2002C35.799 82.2002 35.774 82.2085 35.7573 82.2085C35.2901 82.3416 34.7895 82.0838 34.6309 81.618C34.4724 81.1356 34.7311 80.6199 35.215 80.4618L35.2066 80.4701Z" fill="white"/>
<path d="M37.4175 80.0289C37.7262 80.3034 37.9098 80.8524 37.8263 81.2516C37.7846 81.4513 37.6928 81.5677 37.5677 81.6176L39.0028 81.1435L39.7704 80.894C39.7704 80.894 39.8121 80.8773 39.8288 80.869C40.271 80.6943 40.5129 80.2036 40.3711 79.7461C40.2209 79.2637 39.7036 78.9975 39.2197 79.1473L38.4187 79.4134L36.9836 79.8875C37.1088 79.8459 37.2673 79.8875 37.4258 80.0289H37.4175Z" fill="#CF4518"/>
<path d="M38.0364 83.0146L39.8052 82.4323C39.9303 82.3907 40.0888 82.4323 40.2474 82.5737C40.5561 82.8482 40.7396 83.3972 40.6562 83.7964C40.6145 83.9961 40.5227 84.1125 40.3975 84.1624L38.6287 84.7446C38.6287 84.7446 38.6037 84.753 38.587 84.753C38.1198 84.886 37.6192 84.6282 37.4607 84.1624C37.3021 83.68 37.5608 83.1643 38.0447 83.0063L38.0364 83.0146Z" fill="white"/>
<path d="M40.2472 82.5646C40.5559 82.8391 40.7395 83.388 40.656 83.7873C40.6143 83.9869 40.5225 84.1033 40.3974 84.1532L41.8325 83.6791L42.6001 83.4296C42.6001 83.4296 42.6418 83.413 42.6585 83.4047C43.1007 83.23 43.3426 82.7392 43.2008 82.2818C43.0506 81.7993 42.5333 81.5332 42.0494 81.6829L41.2484 81.9491L39.8134 82.4232C39.9385 82.3816 40.097 82.4232 40.2556 82.5646H40.2472Z" fill="#CF4518"/>
<path d="M56.1053 73.2L37.5995 83.8549C36.8819 84.2708 35.7139 84.2708 34.9963 83.8549L23.1737 77.051C22.4561 76.6352 22.4561 75.9614 23.1737 75.5539L41.6794 64.8989C42.397 64.4831 43.565 64.4831 44.2826 64.8989L56.1053 71.7028C56.8228 72.1187 56.8228 72.7924 56.1053 73.2Z" fill="#878787"/>
<path d="M56.1055 72.859L37.5997 83.5139C36.8822 83.9298 35.7141 83.9298 34.9966 83.5139L23.1739 76.71C22.4564 76.2942 22.4564 75.6204 23.1739 75.2129L41.6797 64.5579C42.3972 64.1421 43.5653 64.1421 44.2828 64.5579L56.1055 71.3618C56.823 71.7777 56.823 72.4514 56.1055 72.859Z" fill="#DADADA"/>
<path d="M38.4849 67.4931L40.1035 66.5616C40.2203 66.495 40.3788 66.5033 40.5624 66.6031C40.9211 66.8111 41.2132 67.3101 41.2132 67.7177C41.2132 67.9173 41.1464 68.0587 41.0296 68.1253L39.411 69.0569C39.411 69.0569 39.3859 69.0735 39.3693 69.0735C38.9354 69.3064 38.3931 69.1483 38.1428 68.7241C37.8925 68.2916 38.0426 67.726 38.4765 67.4765L38.4849 67.4931Z" fill="white"/>
<path d="M40.5546 66.6032C40.9134 66.8112 41.2054 67.3102 41.2054 67.7178C41.2054 67.9174 41.1386 68.0588 41.0218 68.1253L42.3317 67.3684L43.0326 66.9692C43.0326 66.9692 43.066 66.9442 43.0827 66.9359C43.4831 66.6781 43.6166 66.1457 43.383 65.7299C43.1327 65.289 42.5821 65.131 42.1398 65.3805L41.4056 65.8047L40.0957 66.5616C40.2125 66.4951 40.371 66.5034 40.5546 66.6032Z" fill="#E94E1B"/>
<path d="M41.7723 69.3996L43.391 68.468C43.5078 68.4015 43.6663 68.4098 43.8498 68.5096C44.2086 68.7176 44.5006 69.2166 44.5006 69.6242C44.5006 69.8238 44.4339 69.9652 44.3171 70.0318L42.6984 70.9633C42.6984 70.9633 42.6734 70.98 42.6567 70.98C42.2229 71.2129 41.6805 71.0548 41.4302 70.6306C41.1799 70.1898 41.3301 69.6325 41.764 69.383L41.7723 69.3996Z" fill="white"/>
<path d="M43.8421 68.5168C44.2008 68.7247 44.4929 69.2238 44.4929 69.6314C44.4929 69.831 44.4261 69.9724 44.3093 70.0389L45.6192 69.282L46.3201 68.8828C46.3201 68.8828 46.3534 68.8578 46.3701 68.8495C46.7706 68.5917 46.9041 68.0593 46.6705 67.6434C46.4202 67.2026 45.8695 67.0446 45.4273 67.2941L44.6931 67.7183L43.3832 68.4752C43.5 68.4087 43.6585 68.417 43.8421 68.5168Z" fill="#E94E1B"/>
<path d="M45.0521 71.3116L46.6707 70.38C46.7875 70.3135 46.9461 70.3218 47.1296 70.4216C47.4884 70.6296 47.7804 71.1286 47.7804 71.5362C47.7804 71.7358 47.7137 71.8772 47.5969 71.9438L45.9782 72.8753C45.9782 72.8753 45.9532 72.892 45.9365 72.892C45.5027 73.1249 44.9603 72.9668 44.71 72.5426C44.4597 72.1101 44.6099 71.5445 45.0438 71.295L45.0521 71.3116Z" fill="white"/>
<path d="M47.1299 70.4288C47.4887 70.6367 47.7807 71.1358 47.7807 71.5433C47.7807 71.743 47.714 71.8844 47.5971 71.9509L48.9071 71.194L49.6079 70.7948C49.6079 70.7948 49.6413 70.7698 49.658 70.7615C50.0585 70.5036 50.192 69.9713 49.9583 69.5554C49.708 69.1146 49.1574 68.9566 48.7152 69.2061L47.9809 69.6303L46.671 70.3872C46.7878 70.3206 46.9464 70.329 47.1299 70.4288Z" fill="#E94E1B"/>
<path d="M48.3387 73.2244L49.9574 72.2928C50.0742 72.2263 50.2327 72.2346 50.4163 72.3344C50.775 72.5423 51.067 73.0414 51.067 73.449C51.067 73.6486 51.0003 73.79 50.8835 73.8565L49.2649 74.7881C49.2649 74.7881 49.2398 74.8047 49.2231 74.8047C48.7893 75.0376 48.247 74.8796 47.9967 74.4554C47.7463 74.0146 47.8965 73.4573 48.3304 73.2078L48.3387 73.2244Z" fill="white"/>
<path d="M50.4165 72.3433C50.7753 72.5513 51.0673 73.0503 51.0673 73.4579C51.0673 73.6575 51.0006 73.7989 50.8838 73.8655L52.1937 73.1086L52.8945 72.7093C52.8945 72.7093 52.9279 72.6844 52.9446 72.676C53.3451 72.4182 53.4786 71.8859 53.245 71.47C52.9947 71.0291 52.444 70.8711 52.0018 71.1206L51.2676 71.5448L49.9576 72.3017C50.0744 72.2352 50.233 72.2435 50.4165 72.3433Z" fill="#E94E1B"/>
<path d="M32.4036 71.0023L34.0222 70.0707C34.139 70.0042 34.2975 70.0125 34.4811 70.1123C34.8398 70.3202 35.1319 70.8193 35.1319 71.2269C35.1319 71.4265 35.0651 71.5679 34.9483 71.6344L33.3297 72.566C33.3297 72.566 33.3046 72.5826 33.288 72.5826C32.8541 72.8155 32.3118 72.6575 32.0615 72.2333C31.8112 71.7925 31.9614 71.2352 32.3952 70.9857L32.4036 71.0023Z" fill="white"/>
<path d="M34.4815 70.1124C34.8402 70.3204 35.1323 70.8194 35.1323 71.227C35.1323 71.4266 35.0655 71.568 34.9487 71.6346L36.2586 70.8777L36.9595 70.4784C36.9595 70.4784 36.9929 70.4535 37.0095 70.4451C37.41 70.1873 37.5435 69.655 37.3099 69.2391C37.0596 68.7982 36.5089 68.6402 36.0667 68.8897L35.3325 69.3139L34.0226 70.0708C34.1394 70.0043 34.2979 70.0126 34.4815 70.1124Z" fill="#E94E1B"/>
<path d="M35.6903 72.907L37.3089 71.9754C37.4257 71.9088 37.5843 71.9171 37.7678 72.017C38.1266 72.2249 38.4186 72.724 38.4186 73.1315C38.4186 73.3311 38.3519 73.4726 38.2351 73.5391L36.6164 74.4707C36.6164 74.4707 36.5914 74.4873 36.5747 74.4873C36.1408 74.7202 35.5985 74.5622 35.3482 74.138C35.0979 73.7054 35.2481 73.1398 35.682 72.8903L35.6903 72.907Z" fill="white"/>
<path d="M37.7681 72.0259C38.1269 72.2338 38.4189 72.7329 38.4189 73.1404C38.4189 73.3401 38.3521 73.4815 38.2353 73.548L39.5452 72.7911L40.2461 72.3919C40.2461 72.3919 40.2795 72.3669 40.2962 72.3586C40.6966 72.1007 40.8301 71.5684 40.5965 71.1525C40.3462 70.7117 39.7956 70.5537 39.3534 70.8032L38.6191 71.2274L37.3092 71.9843C37.426 71.9178 37.5845 71.9261 37.7681 72.0259Z" fill="#E94E1B"/>
<path d="M38.9774 74.8199L40.596 73.8883C40.7128 73.8218 40.8714 73.8301 41.0549 73.9299C41.4137 74.1379 41.7057 74.6369 41.7057 75.0445C41.7057 75.2441 41.639 75.3855 41.5222 75.4521L39.9035 76.3836C39.9035 76.3836 39.8785 76.4003 39.8618 76.4003C39.4279 76.6332 38.8856 76.4751 38.6353 76.0509C38.385 75.6101 38.5352 75.0528 38.9691 74.8033L38.9774 74.8199Z" fill="white"/>
<path d="M41.0552 73.9388C41.414 74.1468 41.706 74.6459 41.706 75.0534C41.706 75.253 41.6392 75.3944 41.5224 75.461L42.8324 74.7041L43.5332 74.3048C43.5332 74.3048 43.5666 74.2799 43.5833 74.2716C43.9838 74.0137 44.1173 73.4814 43.8836 73.0655C43.6333 72.6247 43.0827 72.4666 42.6405 72.7162L41.9062 73.1404L40.5963 73.8973C40.7131 73.8307 40.8716 73.839 41.0552 73.9388Z" fill="#E94E1B"/>
<path d="M42.264 76.7337L43.8827 75.8021C43.9995 75.7356 44.158 75.7439 44.3415 75.8437C44.7003 76.0516 44.9923 76.5507 44.9923 76.9582C44.9923 77.1579 44.9256 77.2993 44.8088 77.3658L43.1901 78.2974C43.1901 78.2974 43.1651 78.314 43.1484 78.314C42.7146 78.5469 42.1722 78.3889 41.9219 77.9647C41.6716 77.5322 41.8218 76.9666 42.2557 76.717L42.264 76.7337Z" fill="white"/>
<path d="M44.3338 75.8508C44.6925 76.0588 44.9846 76.5578 44.9846 76.9654C44.9846 77.165 44.9178 77.3064 44.801 77.373L46.1109 76.6161L46.8118 76.2168C46.8118 76.2168 46.8451 76.1919 46.8618 76.1835C47.2623 75.9257 47.3958 75.3934 47.1622 74.9775C46.9119 74.5366 46.3612 74.3786 45.919 74.6281L45.1848 75.0523L43.8749 75.8092C43.9917 75.7427 44.1502 75.751 44.3338 75.8508Z" fill="#E94E1B"/>
<path d="M26.3296 74.5147L27.9482 73.5832C28.065 73.5166 28.2235 73.5249 28.4071 73.6247C28.7659 73.8327 29.0579 74.3317 29.0579 74.7393C29.0579 74.9389 28.9911 75.0803 28.8743 75.1469L27.2557 76.0785C27.2557 76.0785 27.2307 76.0951 27.214 76.0951C26.7801 76.328 26.2378 76.17 25.9875 75.7458C25.7372 75.3132 25.8874 74.7476 26.3212 74.4981L26.3296 74.5147Z" fill="white"/>
<path d="M28.3993 73.6249C28.7581 73.8328 29.0501 74.3319 29.0501 74.7394C29.0501 74.9391 28.9834 75.0805 28.8666 75.147L30.1765 74.3901L30.8773 73.9909C30.8773 73.9909 30.9107 73.9659 30.9274 73.9576C31.3279 73.6997 31.4614 73.1674 31.2277 72.7515C30.9774 72.3107 30.4268 72.1527 29.9846 72.4022L29.2504 72.8264L27.9404 73.5833C28.0572 73.5168 28.2158 73.5251 28.3993 73.6249Z" fill="#E94E1B"/>
<path d="M29.6145 76.4283L31.2331 75.4967C31.3499 75.4301 31.5085 75.4385 31.692 75.5383C32.0508 75.7462 32.3428 76.2453 32.3428 76.6528C32.3428 76.8524 32.2761 76.9938 32.1592 77.0604L30.5406 77.992C30.5406 77.992 30.5156 78.0086 30.4989 78.0086C30.065 78.2415 29.5227 78.0835 29.2724 77.6593C29.0221 77.2184 29.1723 76.6611 29.6061 76.4116L29.6145 76.4283Z" fill="white"/>
<path d="M31.6842 75.5384C32.043 75.7463 32.335 76.2454 32.335 76.653C32.335 76.8526 32.2683 76.994 32.1515 77.0605L33.4614 76.3036L34.1622 75.9044C34.1622 75.9044 34.1956 75.8794 34.2123 75.8711C34.6128 75.6133 34.7463 75.0809 34.5127 74.665C34.2624 74.2242 33.7117 74.0662 33.2695 74.3157L32.5353 74.7399L31.2253 75.4968C31.3422 75.4303 31.5007 75.4386 31.6842 75.5384Z" fill="#E94E1B"/>
<path d="M32.8943 78.3332L34.5129 77.4016C34.6297 77.335 34.7882 77.3434 34.9718 77.4432C35.3306 77.6511 35.6226 78.1502 35.6226 78.5577C35.6226 78.7574 35.5558 78.8988 35.439 78.9653L33.8204 79.8969C33.8204 79.8969 33.7954 79.9135 33.7787 79.9135C33.3448 80.1464 32.8025 79.9884 32.5522 79.5642C32.3019 79.1317 32.4521 78.5661 32.8859 78.3165L32.8943 78.3332Z" fill="white"/>
<path d="M34.9721 77.4504C35.3308 77.6583 35.6229 78.1574 35.6229 78.565C35.6229 78.7646 35.5561 78.906 35.4393 78.9725L36.7492 78.2156L37.4501 77.8164C37.4501 77.8164 37.4835 77.7914 37.5001 77.7831C37.9006 77.5252 38.0341 76.9929 37.8005 76.577C37.5502 76.1362 36.9995 75.9782 36.5573 76.2277L35.8231 76.6519L34.5132 77.4088C34.63 77.3423 34.7885 77.3506 34.9721 77.4504Z" fill="#E94E1B"/>
<path d="M36.1832 80.2449L37.8018 79.3133C37.9187 79.2468 38.0772 79.2551 38.2607 79.3549C38.6195 79.5629 38.9115 80.0619 38.9115 80.4695C38.9115 80.6691 38.8448 80.8105 38.728 80.877L37.1093 81.8086C37.1093 81.8086 37.0843 81.8253 37.0676 81.8253C36.6338 82.0582 36.0914 81.9001 35.8411 81.4759C35.5908 81.0351 35.741 80.4778 36.1749 80.2283L36.1832 80.2449Z" fill="white"/>
<path d="M38.261 79.3638C38.6198 79.5718 38.9118 80.0708 38.9118 80.4784C38.9118 80.678 38.8451 80.8194 38.7282 80.886L40.0382 80.1291L40.739 79.7298C40.739 79.7298 40.7724 79.7049 40.7891 79.6965C41.1896 79.4387 41.3231 78.9064 41.0894 78.4905C40.8391 78.0496 40.2885 77.8916 39.8463 78.1411L39.112 78.5653L37.8021 79.3222C37.9189 79.2557 38.0775 79.264 38.261 79.3638Z" fill="#E94E1B"/>
<defs>
<linearGradient id="paint0_linear_779_13134" x1="29.1573" y1="28.1192" x2="43.7667" y2="28.1192" gradientUnits="userSpaceOnUse">
<stop stop-color="#E0E0E0"/>
<stop offset="0.26" stop-color="#F4F4F4"/>
<stop offset="0.46" stop-color="white"/>
<stop offset="0.65" stop-color="#FAFAFA"/>
<stop offset="0.85" stop-color="#EEEEEE"/>
<stop offset="1" stop-color="#E0E0E0"/>
</linearGradient>
</defs>
</svg>
