<svg width="16" height="20" viewBox="0 0 16 20" fill="none" xmlns="http://www.w3.org/2000/svg">
<path fill-rule="evenodd" clip-rule="evenodd" d="M7.92024 2C6.81567 2 5.92024 2.89543 5.92024 4V5H9.92024V4C9.92024 2.89543 9.02481 2 7.92024 2ZM11.9202 5V4C11.9202 1.79086 10.1294 0 7.92024 0C5.7111 0 3.92024 1.79086 3.92024 4V5H1.92024C1.3977 5 0.963264 5.40231 0.923187 5.9233L0.00600969 17.8466C-0.0833432 19.0082 0.835097 20 2.00012 20H13.8404C15.0054 20 15.9238 19.0082 15.8345 17.8466L14.9173 5.9233C14.8772 5.40231 14.4428 5 13.9202 5H11.9202ZM9.92024 7V8C9.92024 8.55228 10.368 9 10.9202 9C11.4725 9 11.9202 8.55228 11.9202 8V7H12.9942L13.8404 18H2.00012L2.84627 7H3.92024V8C3.92024 8.55228 4.36796 9 4.92024 9C5.47253 9 5.92024 8.55228 5.92024 8V7H9.92024Z" fill="#04BD88"/>
</svg>
