<svg width="65" height="87" viewBox="0 0 65 87" fill="none" xmlns="http://www.w3.org/2000/svg">
<path d="M11.8114 25.2072L16.1166 30.1978L55.4811 7.54054L46.8122 5.06188L42.507 0.0712891L3.14258 22.7286L11.8114 25.2072Z" fill="white"/>
<path d="M3.65234 22.6776L12.0375 25.0731L16.2009 29.9056L35.5911 18.7433L54.9729 7.58937L46.5877 5.18557L42.4244 0.361328L23.0342 11.5236L3.65234 22.6776Z" fill="#CAD2DA"/>
<path d="M42.4238 0.361328V14.8091L54.9724 7.58937L46.5872 5.18557L42.4238 0.361328Z" fill="#B2C4D3"/>
<path d="M46.5693 12.4405L54.9712 7.5913L46.5693 5.1875V12.4405Z" fill="#BCCDD8"/>
<path d="M55.4803 7.54102L58.3838 60.1751L14.6558 85.3444L9.87497 79.8048L0.238281 77.0517L3.1418 22.7291L11.8106 25.2077L16.1159 30.1983L55.4803 7.54102Z" fill="#EEF0F3"/>
<path d="M14.6558 85.3428L9.87497 79.8033L0.238281 77.0501L3.1418 22.7275L11.8106 25.2062L16.1159 30.1968L14.6558 85.3428Z" fill="#BCCDD8"/>
<path d="M14.6568 85.3437L9.87598 79.8041L11.8117 25.207L16.1169 30.1976L14.6568 85.3437Z" fill="#B2C4D3"/>
<path d="M46.22 38.6072L40.1209 42.1173V35.0889L33.2793 39.0231V46.0515L27.1719 49.5699V57.4384L33.2793 53.92V60.9568L40.1209 57.0142V49.9858L46.22 46.4757V38.6072Z" fill="#00897C"/>
<path d="M16.3249 29.9068L14.6562 85.3439L16.0746 29.8984L16.3249 29.9068Z" fill="white"/>
<path d="M43.893 18.2112C43.893 17.6955 43.5343 17.4876 43.0837 17.7454C42.6332 18.0033 42.2744 18.6271 42.2744 19.1428C42.2744 19.6585 42.6332 19.8664 43.0837 19.6086C43.5259 19.3507 43.893 18.7269 43.893 18.2112Z" fill="#4C4C4C"/>
<path d="M43.7332 18.3017C43.7332 17.8858 43.4412 17.7195 43.0824 17.9274C42.7237 18.1354 42.4316 18.6427 42.4316 19.0586C42.4316 19.4745 42.7237 19.6408 43.0824 19.4329C43.4412 19.225 43.7332 18.7176 43.7332 18.3017Z" fill="#ADBCC1"/>
<path d="M43.4333 18.4776C43.4333 18.2613 43.2747 18.1698 43.0828 18.278C42.8909 18.3944 42.7408 18.6606 42.7324 18.8768C42.7324 19.0931 42.8826 19.1846 43.0828 19.0765C43.2747 18.9683 43.4249 18.7022 43.4333 18.4776Z" fill="#14161A"/>
<path d="M29.8149 26.3118C29.8149 25.7961 29.4562 25.5882 29.0056 25.846C28.5634 26.1039 28.1963 26.7277 28.1963 27.2434C28.1963 27.7591 28.5551 27.967 29.0056 27.7092C29.4478 27.4513 29.8149 26.8275 29.8149 26.3118Z" fill="#4C4C4C"/>
<path d="M29.6639 26.3955C29.6639 25.9796 29.3719 25.8132 29.0131 26.0212C28.6543 26.2291 28.3623 26.7365 28.3623 27.1524C28.3623 27.5682 28.6543 27.7346 29.0131 27.5267C29.3719 27.3187 29.6639 26.8113 29.6639 26.3955Z" fill="#ADBCC1"/>
<path d="M29.357 26.5777C29.357 26.3531 29.1985 26.27 29.0149 26.3781C28.823 26.4862 28.6729 26.7524 28.6729 26.977C28.6729 27.1932 28.823 27.2847 29.0149 27.1766C29.2068 27.0685 29.357 26.794 29.357 26.5777Z" fill="#14161A"/>
<g style="mix-blend-mode:multiply">
<path d="M33.863 37.6926C33.1872 37.6926 32.6282 37.518 32.1943 37.2934C29.8665 36.079 28.5566 32.1281 28.7818 26.9878C28.7818 26.8547 28.907 26.7549 29.0321 26.7549C29.1656 26.7549 29.2741 26.8714 29.2658 27.0044C29.0488 31.9535 30.2586 35.7297 32.4196 36.8609C33.7629 37.5595 35.4399 37.1936 37.2755 35.8045C42.6987 31.6873 42.9824 22.5462 42.8572 18.8032C42.8572 18.6702 42.9574 18.5537 43.0909 18.5537C43.241 18.5537 43.3412 18.6535 43.3412 18.7866C43.4997 23.3197 42.9407 27.2207 41.6892 30.398C40.4376 33.5588 38.7606 35.2971 37.5758 36.1955C36.0824 37.3267 34.8475 37.701 33.863 37.701V37.6926Z" fill="url(#paint0_linear_1126_58435)"/>
</g>
<path d="M34.8475 35.0887C34.0298 35.0887 33.3373 34.8808 32.7866 34.6146C30.4421 33.4834 28.8318 30.4142 28.7734 26.9957C28.7734 26.8626 28.8819 26.7544 29.0154 26.7461C29.1489 26.7461 29.2574 26.8543 29.2574 26.9873C29.3074 30.1813 30.8426 33.1341 32.9952 34.1738C34.6723 34.9806 36.5829 34.6313 38.5269 33.159C41.3971 30.9798 43.1742 25.0826 42.8488 18.8028C42.8488 18.6697 42.949 18.5532 43.0825 18.5449C43.216 18.5449 43.3328 18.6447 43.3411 18.7778C43.6832 25.3072 41.8643 31.2377 38.8273 33.5417C37.3004 34.6978 35.9571 35.0887 34.8475 35.0887Z" fill="#50B09B"/>
<path d="M45.4022 43.1724V70.1216C45.2854 71.6437 46.2365 73.1908 48.2556 74.3553C52.0769 76.5511 58.2678 76.5511 62.0891 74.3553C63.9997 73.2573 64.9509 71.8184 64.9509 70.3711V43.1641H45.3938L45.4022 43.1724Z" fill="#C6C6C6"/>
<path d="M62.0959 39.1879C65.9172 41.3838 65.9172 44.952 62.0959 47.1479C58.2746 49.3438 52.0838 49.3438 48.2625 47.1479C44.4412 44.952 44.4412 41.3838 48.2625 39.1879C52.0838 36.9921 58.2746 36.9921 62.0959 39.1879Z" fill="#EDEDED"/>
<path d="M49.19 37.0918V41.3005C49.1149 42.2321 49.699 43.1803 50.9421 43.8956C53.2783 45.2431 57.0746 45.2431 59.4191 43.8956C60.5872 43.2219 61.1712 42.3402 61.1712 41.4586V37.0918H49.1984H49.19Z" fill="#436975"/>
<path d="M59.4111 34.6551C61.7473 36.0026 61.7473 38.1818 59.4111 39.5293C57.0749 40.8767 53.2787 40.8767 50.9342 39.5293C48.5897 38.1818 48.5897 36.0026 50.9342 34.6551C53.2703 33.3077 57.0666 33.3077 59.4111 34.6551Z" fill="#73B4C9"/>
<path d="M62.0969 50.8328C58.2756 53.0286 52.0847 53.0286 48.2634 50.8328C46.4112 49.7681 45.46 48.3791 45.41 46.9817V66.445C45.2932 67.9672 46.2443 69.5142 48.2634 70.6787C52.0847 72.8746 58.2756 72.8746 62.0969 70.6787C64.0075 69.5808 64.9587 68.1418 64.9587 66.6945V46.8486C64.9587 48.2876 63.9992 49.7265 62.0969 50.8328Z" fill="#73B4C9"/>
<path d="M62.0969 52.6966C58.2756 54.8924 52.0847 54.8924 48.2634 52.6966C46.4112 51.6319 45.46 50.2429 45.41 48.8455V64.5825C45.2932 66.1046 46.2443 67.6517 48.2634 68.8162C52.0847 71.012 58.2756 71.012 62.0969 68.8162C64.0075 67.7183 64.9587 66.2793 64.9587 64.832V48.7041C64.9587 50.1431 63.9992 51.582 62.0969 52.6883V52.6966Z" fill="#436975"/>
<path d="M55.1815 69.1572C52.7952 69.1572 50.5759 68.6332 48.9239 67.685C47.4471 66.8366 46.6461 65.7387 46.7296 64.6906V64.5908V53.2788C47.0049 53.4785 47.2886 53.6614 47.6056 53.8444C49.6498 55.0255 52.3447 55.6743 55.1815 55.6743C58.0182 55.6743 60.7132 55.0255 62.7573 53.8444C63.0744 53.6614 63.3664 53.4701 63.6417 53.2705V64.8404C63.6417 65.8385 62.8408 66.8782 61.4391 67.685C59.7871 68.6332 57.5677 69.1572 55.1815 69.1572Z" fill="#73B4C9"/>
<path d="M50.0988 64.3828C49.9904 64.832 49.8819 65.2894 49.7734 65.7386C51.3003 66.6203 53.236 67.1609 55.2551 67.1526C57.2158 67.1526 59.0931 66.6369 60.5866 65.7885C60.4781 65.3393 60.3696 64.8902 60.2612 64.441C57.4327 66.3042 52.8772 66.2792 50.0905 64.3911L50.0988 64.3828Z" fill="#436975"/>
<path d="M58.3843 60.1736C58.3843 62.2531 56.9493 63.9332 55.1804 63.9332C53.4116 63.9332 51.9766 62.2531 51.9766 60.1736C51.9766 58.0942 53.4116 56.4141 55.1804 56.4141C56.9493 56.4141 58.3843 58.0942 58.3843 60.1736Z" fill="white"/>
<path d="M58.5763 80.161L38.2767 86.8234C37.4841 87.0813 36.3494 86.8484 35.7236 86.2911L25.5446 77.2249C24.9272 76.6759 25.0607 76.0188 25.8533 75.7526L46.1529 69.0902C46.9455 68.8324 48.0803 69.0652 48.706 69.6225L58.885 78.6888C59.5024 79.2377 59.3689 79.8948 58.5763 80.161Z" fill="#6D6D6D"/>
<path d="M58.6427 79.829L38.3431 86.4914C37.5505 86.7493 36.4158 86.5164 35.79 85.9591L25.611 76.8928C24.9936 76.3439 25.1271 75.6868 25.9197 75.4206L46.2193 68.7582C47.012 68.5003 48.1467 68.7332 48.7724 69.2905L58.9514 78.3567C59.5689 78.9057 59.4354 79.5628 58.6427 79.829Z" fill="#C0C0C0"/>
<path d="M42.4885 70.995L44.2573 70.4128C44.3825 70.3712 44.541 70.4128 44.6995 70.5542C45.0082 70.8287 45.1918 71.3777 45.1083 71.7769C45.0666 71.9765 44.9748 72.093 44.8497 72.1429L43.0809 72.7251C43.0809 72.7251 43.0559 72.7334 43.0392 72.7334C42.5719 72.8665 42.0713 72.6087 41.9128 72.1429C41.7543 71.6605 42.0129 71.1448 42.4968 70.9867L42.4885 70.995Z" fill="white"/>
<path d="M44.7073 70.5464C45.016 70.8209 45.1996 71.3698 45.1161 71.7691C45.0744 71.9687 44.9826 72.0852 44.8575 72.1351L46.2926 71.661L47.0602 71.4114C47.0602 71.4114 47.1019 71.3948 47.1186 71.3865C47.5608 71.2118 47.8027 70.7211 47.6609 70.2636C47.5107 69.7812 46.9934 69.515 46.5095 69.6647L45.7085 69.9309L44.2734 70.405C44.3986 70.3634 44.5571 70.405 44.7156 70.5464H44.7073Z" fill="#CF4518"/>
<path d="M45.3186 73.5321L47.0874 72.9499C47.2125 72.9083 47.3711 72.9499 47.5296 73.0913C47.8383 73.3658 48.0219 73.9148 47.9384 74.314C47.8967 74.5136 47.8049 74.6301 47.6798 74.68L45.911 75.2622C45.911 75.2622 45.8859 75.2705 45.8692 75.2705C45.402 75.4036 44.9014 75.1458 44.7429 74.68C44.5844 74.1976 44.843 73.6819 45.3269 73.5238L45.3186 73.5321Z" fill="white"/>
<path d="M47.5296 73.0825C47.8383 73.357 48.0218 73.906 47.9384 74.3052C47.8967 74.5048 47.8049 74.6213 47.6797 74.6712L49.1148 74.1971L49.8824 73.9476C49.8824 73.9476 49.9241 73.9309 49.9408 73.9226C50.383 73.7479 50.625 73.2572 50.4831 72.7997C50.333 72.3173 49.8157 72.0511 49.3317 72.2009L48.5308 72.467L47.0957 72.9411C47.2209 72.8995 47.3794 72.9411 47.5379 73.0825H47.5296Z" fill="#CF4518"/>
<path d="M48.1457 76.0702L49.9145 75.488C50.0397 75.4464 50.1982 75.488 50.3567 75.6294C50.6654 75.9039 50.849 76.4528 50.7656 76.8521C50.7239 77.0517 50.6321 77.1682 50.5069 77.2181L48.7381 77.8003C48.7381 77.8003 48.7131 77.8086 48.6964 77.8086C48.2292 77.9417 47.7286 77.6839 47.57 77.2181C47.4115 76.7357 47.6702 76.22 48.1541 76.0619L48.1457 76.0702Z" fill="white"/>
<path d="M50.3567 75.6294C50.6654 75.9039 50.849 76.4528 50.7655 76.8521C50.7238 77.0517 50.632 77.1682 50.5069 77.2181L51.942 76.744L52.7096 76.4944C52.7096 76.4944 52.7513 76.4778 52.768 76.4695C53.2102 76.2948 53.4521 75.8041 53.3103 75.3466C53.1601 74.8642 52.6428 74.598 52.1589 74.7477L51.3579 75.0139L49.9229 75.488C50.048 75.4464 50.2065 75.488 50.3651 75.6294H50.3567Z" fill="#CF4518"/>
<path d="M50.9758 78.6142L52.7446 78.0319C52.8698 77.9904 53.0283 78.0319 53.1868 78.1733C53.4955 78.4478 53.6791 78.9968 53.5956 79.396C53.5539 79.5957 53.4622 79.7121 53.337 79.762L51.5682 80.3443C51.5682 80.3443 51.5432 80.3526 51.5265 80.3526C51.0592 80.4856 50.5586 80.2278 50.4001 79.762C50.2416 79.2796 50.5002 78.7639 50.9841 78.6059L50.9758 78.6142Z" fill="white"/>
<path d="M53.1868 78.1646C53.4955 78.439 53.6791 78.988 53.5956 79.3872C53.5539 79.5869 53.4621 79.7033 53.337 79.7532L54.772 79.2791L55.5396 79.0296C55.5396 79.0296 55.5814 79.013 55.598 79.0046C56.0402 78.83 56.2822 78.3392 56.1404 77.8818C55.9902 77.3993 55.4729 77.1332 54.989 77.2829L54.188 77.549L52.7529 78.0232C52.8781 77.9816 53.0366 78.0232 53.1951 78.1646H53.1868Z" fill="#CF4518"/>
<path d="M35.8235 73.1923L37.5923 72.6101C37.7174 72.5685 37.8759 72.6101 38.0345 72.7515C38.3432 73.026 38.5267 73.5749 38.4433 73.9742C38.4016 74.1738 38.3098 74.2902 38.1847 74.3401L36.4158 74.9224C36.4158 74.9224 36.3908 74.9307 36.3741 74.9307C35.9069 75.0638 35.4063 74.8059 35.2478 74.3401C35.0892 73.8577 35.3479 73.342 35.8318 73.184L35.8235 73.1923Z" fill="white"/>
<path d="M38.0344 72.7515C38.3432 73.0259 38.5267 73.5749 38.4433 73.9742C38.4016 74.1738 38.3098 74.2902 38.1846 74.3401L39.6197 73.866L40.3873 73.6165C40.3873 73.6165 40.429 73.5999 40.4457 73.5915C40.8879 73.4169 41.1299 72.9261 40.988 72.4687C40.8378 71.9862 40.3206 71.7201 39.8366 71.8698L39.0357 72.136L37.6006 72.6101C37.7257 72.5685 37.8843 72.6101 38.0428 72.7515H38.0344Z" fill="#CF4518"/>
<path d="M38.6535 75.7382L40.4224 75.156C40.5475 75.1144 40.706 75.156 40.8646 75.2974C41.1733 75.5719 41.3568 76.1208 41.2734 76.5201C41.2317 76.7197 41.1399 76.8361 41.0147 76.886L39.2459 77.4683C39.2459 77.4683 39.2209 77.4766 39.2042 77.4766C38.737 77.6097 38.2364 77.3518 38.0778 76.886C37.9193 76.4036 38.178 75.8879 38.6619 75.7299L38.6535 75.7382Z" fill="white"/>
<path d="M40.8645 75.2886C41.1732 75.5631 41.3568 76.112 41.2734 76.5113C41.2316 76.7109 41.1399 76.8273 41.0147 76.8772L42.4498 76.4031L43.2174 76.1536C43.2174 76.1536 43.2591 76.137 43.2758 76.1287C43.718 75.954 43.9599 75.4632 43.8181 75.0058C43.6679 74.5233 43.1506 74.2572 42.6667 74.4069L41.8657 74.6731L40.4307 75.1472C40.5558 75.1056 40.7143 75.1472 40.8729 75.2886H40.8645Z" fill="#CF4518"/>
<path d="M41.4807 78.2734L43.2495 77.6911C43.3746 77.6495 43.5332 77.6911 43.6917 77.8325C44.0004 78.107 44.184 78.656 44.1005 79.0552C44.0588 79.2548 43.967 79.3713 43.8419 79.4212L42.0731 80.0034C42.0731 80.0034 42.048 80.0118 42.0314 80.0118C41.5641 80.1448 41.0635 79.887 40.905 79.4212C40.7465 78.9388 41.0051 78.4231 41.489 78.265L41.4807 78.2734Z" fill="white"/>
<path d="M43.6917 77.8237C44.0004 78.0982 44.1839 78.6472 44.1005 79.0464C44.0588 79.2461 43.967 79.3625 43.8419 79.4124L45.2769 78.9383L46.0445 78.6888C46.0445 78.6888 46.0862 78.6721 46.1029 78.6638C46.5451 78.4891 46.7871 77.9984 46.6453 77.5409C46.4951 77.0585 45.9778 76.7923 45.4939 76.9421L44.6929 77.2082L43.2578 77.6823C43.383 77.6407 43.5415 77.6823 43.7 77.8237H43.6917Z" fill="#CF4518"/>
<path d="M44.301 80.8105L46.0698 80.2282C46.195 80.1866 46.3535 80.2282 46.512 80.3696C46.8207 80.6441 47.0043 81.1931 46.9208 81.5923C46.8791 81.792 46.7873 81.9084 46.6622 81.9583L44.8934 82.5405C44.8934 82.5405 44.8684 82.5489 44.8517 82.5489C44.3844 82.6819 43.8838 82.4241 43.7253 81.9583C43.5668 81.4759 43.8254 80.9602 44.3093 80.8021L44.301 80.8105Z" fill="white"/>
<path d="M46.512 80.3696C46.8207 80.6441 47.0042 81.1931 46.9208 81.5923C46.8791 81.7919 46.7873 81.9084 46.6622 81.9583L48.0972 81.4842L48.8648 81.2347C48.8648 81.2347 48.9066 81.218 48.9232 81.2097C49.3654 81.035 49.6074 80.5443 49.4656 80.0868C49.3154 79.6044 48.7981 79.3382 48.3142 79.488L47.5132 79.7541L46.0781 80.2282C46.2033 80.1866 46.3618 80.2282 46.5203 80.3696H46.512Z" fill="#CF4518"/>
<path d="M29.1584 75.3954L30.9272 74.8132C31.0524 74.7716 31.2109 74.8132 31.3694 74.9546C31.6781 75.2291 31.8617 75.778 31.7783 76.1773C31.7365 76.3769 31.6448 76.4934 31.5196 76.5433L29.7508 77.1255C29.7508 77.1255 29.7258 77.1338 29.7091 77.1338C29.2419 77.2669 28.7412 77.0091 28.5827 76.5433C28.4242 76.0608 28.6828 75.5452 29.1668 75.3871L29.1584 75.3954Z" fill="white"/>
<path d="M31.3714 74.9468C31.6801 75.2213 31.8636 75.7702 31.7802 76.1695C31.7385 76.3691 31.6467 76.4855 31.5215 76.5355L32.9566 76.0613L33.7242 75.8118C33.7242 75.8118 33.7659 75.7952 33.7826 75.7869C34.2248 75.6122 34.4668 75.1215 34.3249 74.664C34.1748 74.1816 33.6575 73.9154 33.1735 74.0651L32.3726 74.3313L30.9375 74.8054C31.0627 74.7638 31.2212 74.8054 31.3797 74.9468H31.3714Z" fill="#CF4518"/>
<path d="M31.9865 77.9316L33.7554 77.3493C33.8805 77.3077 34.039 77.3493 34.1976 77.4907C34.5063 77.7652 34.6898 78.3142 34.6064 78.7134C34.5647 78.913 34.4729 79.0295 34.3477 79.0794L32.5789 79.6616C32.5789 79.6616 32.5539 79.6699 32.5372 79.6699C32.07 79.803 31.5694 79.5452 31.4108 79.0794C31.2523 78.597 31.511 78.0813 31.9949 77.9232L31.9865 77.9316Z" fill="white"/>
<path d="M34.1995 77.4907C34.5082 77.7652 34.6917 78.3142 34.6083 78.7134C34.5666 78.913 34.4748 79.0295 34.3497 79.0794L35.7847 78.6053L36.5523 78.3558C36.5523 78.3558 36.5941 78.3391 36.6107 78.3308C37.0529 78.1561 37.2949 77.6654 37.1531 77.2079C37.0029 76.7255 36.4856 76.4593 36.0017 76.6091L35.2007 76.8752L33.7656 77.3493C33.8908 77.3077 34.0493 77.3493 34.2078 77.4907H34.1995Z" fill="#CF4518"/>
<path d="M34.8069 80.4697L36.5757 79.8874C36.7008 79.8458 36.8593 79.8874 37.0179 80.0288C37.3266 80.3033 37.5101 80.8523 37.4267 81.2515C37.385 81.4511 37.2932 81.5676 37.1681 81.6175L35.3992 82.1997C35.3992 82.1997 35.3742 82.208 35.3575 82.208C34.8903 82.3411 34.3897 82.0833 34.2312 81.6175C34.0726 81.1351 34.3313 80.6194 34.8152 80.4613L34.8069 80.4697Z" fill="white"/>
<path d="M37.0178 80.0288C37.3266 80.3033 37.5101 80.8523 37.4267 81.2515C37.385 81.4511 37.2932 81.5676 37.168 81.6175L38.6031 81.1434L39.3707 80.8938C39.3707 80.8938 39.4124 80.8772 39.4291 80.8689C39.8713 80.6942 40.1133 80.2035 39.9714 79.746C39.8212 79.2636 39.304 78.9974 38.82 79.1471L38.0191 79.4133L36.584 79.8874C36.7091 79.8458 36.8677 79.8874 37.0262 80.0288H37.0178Z" fill="#CF4518"/>
<path d="M37.636 83.0146L39.4048 82.4323C39.5299 82.3907 39.6884 82.4323 39.847 82.5737C40.1557 82.8482 40.3392 83.3972 40.2558 83.7964C40.2141 83.9961 40.1223 84.1125 39.9972 84.1624L38.2283 84.7446C38.2283 84.7446 38.2033 84.753 38.1866 84.753C37.7194 84.886 37.2188 84.6282 37.0603 84.1624C36.9017 83.68 37.1604 83.1643 37.6443 83.0063L37.636 83.0146Z" fill="white"/>
<path d="M39.8469 82.5649C40.1557 82.8394 40.3392 83.3884 40.2558 83.7876C40.2141 83.9873 40.1223 84.1037 39.9971 84.1536L41.4322 83.6795L42.1998 83.43C42.1998 83.43 42.2415 83.4133 42.2582 83.405C42.7004 83.2304 42.9424 82.7396 42.8005 82.2821C42.6503 81.7997 42.1331 81.5336 41.6491 81.6833L40.8482 81.9494L39.4131 82.4235C39.5382 82.382 39.6968 82.4235 39.8553 82.5649H39.8469Z" fill="#CF4518"/>
<path d="M55.7051 73.1998L37.1993 83.8548C36.4818 84.2706 35.3137 84.2706 34.5962 83.8548L22.7735 77.0509C22.056 76.635 22.056 75.9613 22.7735 75.5537L41.2793 64.8988C41.9968 64.4829 43.1649 64.4829 43.8824 64.8988L55.7051 71.7027C56.4226 72.1185 56.4226 72.7923 55.7051 73.1998Z" fill="#878787"/>
<path d="M55.7051 72.859L37.1993 83.5139C36.4818 83.9298 35.3137 83.9298 34.5962 83.5139L22.7735 76.7101C22.056 76.2942 22.056 75.6205 22.7735 75.2129L41.2793 64.558C41.9968 64.1421 43.1649 64.1421 43.8824 64.558L55.7051 71.3618C56.4226 71.7777 56.4226 72.4515 55.7051 72.859Z" fill="#DADADA"/>
<path d="M38.0843 67.4931L39.703 66.5616C39.8198 66.495 39.9783 66.5033 40.1619 66.6031C40.5206 66.8111 40.8126 67.3101 40.8126 67.7177C40.8126 67.9173 40.7459 68.0587 40.6291 68.1253L39.0105 69.0569C39.0105 69.0569 38.9854 69.0735 38.9687 69.0735C38.5349 69.3064 37.9926 69.1483 37.7423 68.7241C37.492 68.2916 37.6421 67.726 38.076 67.4765L38.0843 67.4931Z" fill="white"/>
<path d="M40.1542 66.6029C40.513 66.8108 40.805 67.3099 40.805 67.7174C40.805 67.917 40.7382 68.0584 40.6214 68.125L41.9314 67.3681L42.6322 66.9688C42.6322 66.9688 42.6656 66.9439 42.6823 66.9356C43.0828 66.6777 43.2162 66.1454 42.9826 65.7295C42.7323 65.2887 42.1817 65.1306 41.7395 65.3802L41.0052 65.8044L39.6953 66.5613C39.8121 66.4947 39.9706 66.503 40.1542 66.6029Z" fill="#E94E1B"/>
<path d="M41.3714 69.3994L42.9901 68.4678C43.1069 68.4013 43.2654 68.4096 43.449 68.5094C43.8077 68.7173 44.0998 69.2164 44.0998 69.624C44.0998 69.8236 44.033 69.965 43.9162 70.0315L42.2976 70.9631C42.2976 70.9631 42.2725 70.9797 42.2559 70.9797C41.822 71.2126 41.2797 71.0546 41.0294 70.6304C40.7791 70.1896 40.9292 69.6323 41.3631 69.3827L41.3714 69.3994Z" fill="white"/>
<path d="M43.4413 68.5169C43.8001 68.7249 44.0921 69.2239 44.0921 69.6315C44.0921 69.8311 44.0254 69.9725 43.9085 70.039L45.2185 69.2821L45.9193 68.8829C45.9193 68.8829 45.9527 68.8579 45.9694 68.8496C46.3699 68.5918 46.5034 68.0594 46.2697 67.6436C46.0194 67.2027 45.4688 67.0447 45.0266 67.2942L44.2923 67.7184L42.9824 68.4753C43.0992 68.4088 43.2578 68.4171 43.4413 68.5169Z" fill="#E94E1B"/>
<path d="M44.6517 71.3105L46.2703 70.3789C46.3872 70.3124 46.5457 70.3207 46.7292 70.4205C47.088 70.6285 47.38 71.1275 47.38 71.5351C47.38 71.7347 47.3133 71.8761 47.1965 71.9427L45.5778 72.8742C45.5778 72.8742 45.5528 72.8909 45.5361 72.8909C45.1023 73.1238 44.5599 72.9657 44.3096 72.5415C44.0593 72.109 44.2095 71.5434 44.6434 71.2939L44.6517 71.3105Z" fill="white"/>
<path d="M46.7294 70.428C47.0882 70.636 47.3802 71.135 47.3802 71.5426C47.3802 71.7422 47.3134 71.8836 47.1966 71.9502L48.5066 71.1933L49.2074 70.794C49.2074 70.794 49.2408 70.7691 49.2575 70.7607C49.658 70.5029 49.7914 69.9706 49.5578 69.5547C49.3075 69.1139 48.7569 68.9558 48.3147 69.2054L47.5804 69.6295L46.2705 70.3865C46.3873 70.3199 46.5458 70.3282 46.7294 70.428Z" fill="#E94E1B"/>
<path d="M47.9379 73.2246L49.5565 72.293C49.6733 72.2265 49.8318 72.2348 50.0154 72.3346C50.3741 72.5425 50.6662 73.0416 50.6662 73.4492C50.6662 73.6488 50.5994 73.7902 50.4826 73.8567L48.864 74.7883C48.864 74.7883 48.8389 74.8049 48.8223 74.8049C48.3884 75.0378 47.8461 74.8798 47.5958 74.4556C47.3455 74.0148 47.4957 73.4575 47.9295 73.2079L47.9379 73.2246Z" fill="white"/>
<path d="M50.0155 72.3431C50.3743 72.551 50.6663 73.0501 50.6663 73.4577C50.6663 73.6573 50.5996 73.7987 50.4828 73.8652L51.7927 73.1083L52.4935 72.7091C52.4935 72.7091 52.5269 72.6841 52.5436 72.6758C52.9441 72.4179 53.0776 71.8856 52.844 71.4697C52.5937 71.0289 52.043 70.8709 51.6008 71.1204L50.8666 71.5446L49.5566 72.3015C49.6734 72.235 49.832 72.2433 50.0155 72.3431Z" fill="#E94E1B"/>
<path d="M32.0033 71.0019L33.6219 70.0703C33.7387 70.0038 33.8972 70.0121 34.0808 70.1119C34.4396 70.3199 34.7316 70.8189 34.7316 71.2265C34.7316 71.4261 34.6648 71.5675 34.548 71.6341L32.9294 72.5656C32.9294 72.5656 32.9044 72.5823 32.8877 72.5823C32.4538 72.8152 31.9115 72.6571 31.6612 72.2329C31.4109 71.7921 31.5611 71.2348 31.9949 70.9853L32.0033 71.0019Z" fill="white"/>
<path d="M34.081 70.1116C34.4397 70.3196 34.7318 70.8186 34.7318 71.2262C34.7318 71.4258 34.665 71.5672 34.5482 71.6338L35.8581 70.8769L36.559 70.4776C36.559 70.4776 36.5923 70.4527 36.609 70.4443C37.0095 70.1865 37.143 69.6542 36.9094 69.2383C36.6591 68.7975 36.1084 68.6394 35.6662 68.8889L34.932 69.3131L33.6221 70.0701C33.7389 70.0035 33.8974 70.0118 34.081 70.1116Z" fill="#E94E1B"/>
<path d="M35.2904 72.9072L36.909 71.9756C37.0258 71.9091 37.1844 71.9174 37.3679 72.0172C37.7267 72.2251 38.0187 72.7242 38.0187 73.1318C38.0187 73.3314 37.952 73.4728 37.8351 73.5393L36.2165 74.4709C36.2165 74.4709 36.1915 74.4876 36.1748 74.4876C35.7409 74.7204 35.1986 74.5624 34.9483 74.1382C34.698 73.7057 34.8482 73.1401 35.2821 72.8906L35.2904 72.9072Z" fill="white"/>
<path d="M37.3681 72.0257C37.7268 72.2336 38.0189 72.7327 38.0189 73.1403C38.0189 73.3399 37.9521 73.4813 37.8353 73.5478L39.1452 72.7909L39.8461 72.3917C39.8461 72.3917 39.8794 72.3667 39.8961 72.3584C40.2966 72.1006 40.4301 71.5682 40.1965 71.1523C39.9462 70.7115 39.3955 70.5535 38.9533 70.803L38.2191 71.2272L36.9092 71.9841C37.026 71.9176 37.1845 71.9259 37.3681 72.0257Z" fill="#E94E1B"/>
<path d="M38.5775 74.8193L40.1961 73.8877C40.3129 73.8212 40.4715 73.8295 40.655 73.9293C41.0138 74.1373 41.3058 74.6363 41.3058 75.0439C41.3058 75.2435 41.2391 75.3849 41.1223 75.4514L39.5036 76.383C39.5036 76.383 39.4786 76.3997 39.4619 76.3997C39.028 76.6325 38.4857 76.4745 38.2354 76.0503C37.9851 75.6095 38.1353 75.0522 38.5692 74.8027L38.5775 74.8193Z" fill="white"/>
<path d="M40.6552 73.9378C41.0139 74.1458 41.306 74.6448 41.306 75.0524C41.306 75.252 41.2392 75.3934 41.1224 75.4599L42.4323 74.703L43.1332 74.3038C43.1332 74.3038 43.1666 74.2788 43.1832 74.2705C43.5837 74.0127 43.7172 73.4803 43.4836 73.0645C43.2333 72.6236 42.6826 72.4656 42.2404 72.7151L41.5062 73.1393L40.1963 73.8962C40.3131 73.8297 40.4716 73.838 40.6552 73.9378Z" fill="#E94E1B"/>
<path d="M41.8636 76.7324L43.4823 75.8008C43.5991 75.7343 43.7576 75.7426 43.9412 75.8424C44.2999 76.0503 44.5919 76.5494 44.5919 76.957C44.5919 77.1566 44.5252 77.298 44.4084 77.3645L42.7898 78.2961C42.7898 78.2961 42.7647 78.3127 42.748 78.3127C42.3142 78.5456 41.7719 78.3876 41.5216 77.9634C41.2712 77.5309 41.4214 76.9653 41.8553 76.7158L41.8636 76.7324Z" fill="white"/>
<path d="M43.9335 75.8499C44.2923 76.0579 44.5843 76.5569 44.5843 76.9645C44.5843 77.1641 44.5175 77.3055 44.4007 77.3721L45.7107 76.6151L46.4115 76.2159C46.4115 76.2159 46.4449 76.1909 46.4616 76.1826C46.8621 75.9248 46.9955 75.3924 46.7619 74.9766C46.5116 74.5357 45.961 74.3777 45.5188 74.6272L44.7845 75.0514L43.4746 75.8083C43.5914 75.7418 43.7499 75.7501 43.9335 75.8499Z" fill="#E94E1B"/>
<path d="M25.9291 74.5146L27.5477 73.583C27.6645 73.5165 27.823 73.5248 28.0066 73.6246C28.3654 73.8326 28.6574 74.3316 28.6574 74.7392C28.6574 74.9388 28.5906 75.0802 28.4738 75.1468L26.8552 76.0783C26.8552 76.0783 26.8302 76.095 26.8135 76.095C26.3796 76.3279 25.8373 76.1698 25.587 75.7456C25.3367 75.3131 25.4869 74.7475 25.9207 74.498L25.9291 74.5146Z" fill="white"/>
<path d="M27.9989 73.6243C28.3577 73.8323 28.6497 74.3313 28.6497 74.7389C28.6497 74.9385 28.583 75.0799 28.4662 75.1465L29.7761 74.3896L30.4769 73.9903C30.4769 73.9903 30.5103 73.9654 30.527 73.957C30.9275 73.6992 31.061 73.1669 30.8274 72.751C30.5771 72.3101 30.0264 72.1521 29.5842 72.4016L28.85 72.8258L27.54 73.5827C27.6568 73.5162 27.8154 73.5245 27.9989 73.6243Z" fill="#E94E1B"/>
<path d="M29.2142 76.4277L30.8328 75.4961C30.9497 75.4296 31.1082 75.4379 31.2917 75.5377C31.6505 75.7457 31.9425 76.2447 31.9425 76.6523C31.9425 76.8519 31.8758 76.9933 31.759 77.0598L30.1403 77.9914C30.1403 77.9914 30.1153 78.0081 30.0986 78.0081C29.6648 78.2409 29.1224 78.0829 28.8721 77.6587C28.6218 77.2179 28.772 76.6606 29.2059 76.4111L29.2142 76.4277Z" fill="white"/>
<path d="M31.2841 75.5374C31.6429 75.7454 31.9349 76.2444 31.9349 76.652C31.9349 76.8516 31.8681 76.993 31.7513 77.0595L33.0612 76.3026L33.7621 75.9034C33.7621 75.9034 33.7955 75.8784 33.8122 75.8701C34.2126 75.6123 34.3461 75.0799 34.1125 74.6641C33.8622 74.2232 33.3115 74.0652 32.8693 74.3147L32.1351 74.7389L30.8252 75.4958C30.942 75.4293 31.1005 75.4376 31.2841 75.5374Z" fill="#E94E1B"/>
<path d="M32.4935 78.332L34.1121 77.4004C34.229 77.3339 34.3875 77.3422 34.571 77.442C34.9298 77.6499 35.2218 78.149 35.2218 78.5566C35.2218 78.7562 35.1551 78.8976 35.0383 78.9641L33.4196 79.8957C33.4196 79.8957 33.3946 79.9124 33.3779 79.9124C32.9441 80.1452 32.4017 79.9872 32.1514 79.563C31.9011 79.1305 32.0513 78.5649 32.4852 78.3154L32.4935 78.332Z" fill="white"/>
<path d="M34.5712 77.4495C34.93 77.6575 35.222 78.1565 35.222 78.5641C35.222 78.7637 35.1552 78.9051 35.0384 78.9717L36.3483 78.2148L37.0492 77.8155C37.0492 77.8155 37.0826 77.7906 37.0993 77.7822C37.4997 77.5244 37.6332 76.9921 37.3996 76.5762C37.1493 76.1353 36.5987 75.9773 36.1565 76.2268L35.4222 76.651L34.1123 77.4079C34.2291 77.3414 34.3876 77.3497 34.5712 77.4495Z" fill="#E94E1B"/>
<path d="M35.7826 80.2451L37.4012 79.3135C37.518 79.247 37.6765 79.2553 37.8601 79.3551C38.2189 79.563 38.5109 80.0621 38.5109 80.4697C38.5109 80.6693 38.4441 80.8107 38.3273 80.8772L36.7087 81.8088C36.7087 81.8088 36.6837 81.8254 36.667 81.8254C36.2331 82.0583 35.6908 81.9003 35.4405 81.4761C35.1902 81.0353 35.3404 80.478 35.7742 80.2285L35.7826 80.2451Z" fill="white"/>
<path d="M37.8603 79.3636C38.219 79.5715 38.511 80.0706 38.511 80.4782C38.511 80.6778 38.4443 80.8192 38.3275 80.8857L39.6374 80.1288L40.3383 79.7296C40.3383 79.7296 40.3716 79.7046 40.3883 79.6963C40.7888 79.4385 40.9223 78.9061 40.6887 78.4902C40.4384 78.0494 39.8877 77.8914 39.4455 78.1409L38.7113 78.5651L37.4014 79.322C37.5182 79.2555 37.6767 79.2638 37.8603 79.3636Z" fill="#E94E1B"/>
<defs>
<linearGradient id="paint0_linear_1126_58435" x1="28.7568" y1="28.119" x2="43.3662" y2="28.119" gradientUnits="userSpaceOnUse">
<stop stop-color="#E0E0E0"/>
<stop offset="0.26" stop-color="#F4F4F4"/>
<stop offset="0.46" stop-color="white"/>
<stop offset="0.65" stop-color="#FAFAFA"/>
<stop offset="0.85" stop-color="#EEEEEE"/>
<stop offset="1" stop-color="#E0E0E0"/>
</linearGradient>
</defs>
</svg>
