<svg width="53" height="59" viewBox="0 0 53 59" fill="none" xmlns="http://www.w3.org/2000/svg">
<path d="M52.8108 22.0528C52.5165 21.1457 51.8677 20.3999 50.9714 19.943C49.0317 18.9553 47.0853 19.5197 45.8814 21.4212C45.0453 22.7448 44.2092 24.0751 43.3731 25.3988C42.0621 27.4816 40.7512 29.5645 39.4268 31.6406C39.2262 31.9564 38.8048 32.6149 38.4971 32.7896C38.4235 32.8299 38.3232 32.8702 38.2295 32.9038C38.2228 32.8635 38.2161 32.8299 38.2228 32.8097C38.3566 31.6003 38.6242 30.3976 38.9118 29.1278C39.0188 28.6574 39.1191 28.1938 39.2195 27.7235L39.8482 24.6933C40.8783 19.7414 41.9083 14.7963 42.9517 9.85122C43.6005 6.7874 42.0086 5.59816 41.0053 5.15471C39.8616 4.65751 38.2763 4.76501 37.2396 5.41675C36.3968 5.94082 35.8082 6.93522 35.4805 8.37978C34.9253 10.8322 34.417 13.298 33.9086 15.7639L33.0391 19.9565H33.0525L32.8184 21.1054C32.3034 23.5981 31.795 26.0908 31.2532 28.5768C31.2332 28.6642 31.2131 28.7515 31.1863 28.8321C31.1863 28.6776 31.1796 28.5096 31.173 28.3484L30.979 17.3025C30.9054 13.0024 30.8318 8.70901 30.7516 4.40891C30.7181 2.57465 29.9088 1.06962 28.5978 0.377571C27.5009 -0.200255 26.2367 -0.112909 25.1331 0.62617C23.8622 1.47275 23.1733 3.28014 23.1666 4.54329C23.1532 8.54776 23.2335 12.6127 23.3138 16.5433L23.4074 21.3338C23.4208 21.9184 23.4341 22.5029 23.4341 23.0875C19.2069 20.9038 14.9194 20.588 10.6788 22.1603C8.59864 22.9262 6.73919 24.223 5.16066 25.3719C3.7159 26.42 3.32128 27.6026 3.24771 28.4156C3.14738 29.4637 3.52196 30.5119 4.31122 31.3584C4.89314 31.9833 7.02682 33.831 10.03 31.2241C12.4045 29.1681 15.4077 28.4424 18.2705 29.242C21.0196 30.0079 23.1265 32.0639 24.0495 34.8791C25.521 39.3674 23.0797 43.9228 18.3842 45.4748C13.9095 46.953 9.24076 44.7022 7.75587 40.3416C7.70905 40.2139 7.67562 40.0796 7.64218 39.9452C7.55522 39.6428 7.46827 39.3338 7.34787 39.0449C6.55861 37.1165 4.96002 36.2095 3.04705 36.6059C1.04045 37.0292 -0.123367 38.6216 0.0104066 40.7515C0.358218 46.3282 3.72929 51.7906 9.01335 55.3449C12.5784 57.7436 16.6117 59 20.4644 59C22.2904 59 24.0763 58.7178 25.7551 58.1467C29.2801 56.944 32.4572 54.7604 35.2063 51.6562C37.3868 49.1904 39.1592 46.8791 40.6107 44.5947C43.4066 40.2005 46.1489 35.6787 48.8043 31.3114C49.8879 29.5309 50.9714 27.7504 52.0617 25.9632L52.1554 25.8153C52.2624 25.6541 52.3627 25.4928 52.4497 25.3181C53.0182 24.2095 53.152 23.0807 52.8242 22.0662L52.8108 22.0528Z" fill="#04BD88"/>
</svg>
