<svg viewBox="0 0 56 42" fill="none" xmlns="http://www.w3.org/2000/svg">
    <path d="M25.7691 14.6869L18.7065 8.4938L21.1092 1.8623L26.8682 11.6552L25.7691 14.6869Z" fill="#A84855"/>
    <g style="mix-blend-mode:multiply">
        <path d="M25.7691 14.6869L18.7065 8.4938L21.1092 1.8623L26.8682 11.6552L25.7691 14.6869Z" fill="#BAA49D"/>
    </g>
    <path d="M0.411377 19.0558L18.7069 8.49414L25.7695 14.6872L7.47397 25.2508L0.411377 19.0558Z" fill="#9E005D"/>
    <path d="M7.47363 25.2505L25.7691 14.6869L26.8682 11.6553L8.57274 22.2169L7.47363 25.2505Z" fill="#B80F44"/>
    <g style="mix-blend-mode:multiply">
        <path d="M7.47363 25.2505L25.7691 14.6869L26.8682 11.6553L8.57274 22.2169L7.47363 25.2505Z" fill="#BAA49D"/>
    </g>
    <path d="M54.5918 31.4384L23.8679 9.51496L24.8628 2.7832L55.5886 24.7066L54.5918 31.4384Z" fill="#FBB03B"/>
    <path d="M26.8683 11.656L32.3658 8.13676L24.8628 2.7832L23.8679 9.51496L26.8683 11.656Z" fill="#FBC97B"/>
    <path d="M2.81407 12.4239L21.1096 1.8623L18.7069 8.4938L0.411377 19.0554L2.81407 12.4239Z" fill="#DE8A95"/>
    <g style="mix-blend-mode:multiply">
        <path d="M2.81407 12.4239L21.1096 1.8623L18.7069 8.4938L0.411377 19.0554L2.81407 12.4239Z" fill="#BAA49D"/>
    </g>
    <path d="M36.299 41.9989L5.57324 20.0755L6.56814 13.3457L37.2939 35.2691L36.299 41.9989Z" fill="#EDE6E6"/>
    <path d="M14.0692 18.6973L13.4459 19.0964L8.57563 22.2165L5.57324 20.0755L6.56814 13.3457L14.0692 18.6973Z" fill="#C95666"/>
    <path d="M7.47445 25.2503L0.411865 19.0553L2.81456 12.4238L8.57356 22.2167L7.47445 25.2503Z" fill="#E56274"/>
    <path d="M21.3142 25.5415L14.6389 20.7836L14.6704 20.5693L21.3456 25.3272L21.3142 25.5415Z" fill="#7B95B0"/>
    <path d="M19.2239 24.8965L14.5266 21.5483L14.5581 21.334L19.2573 24.6822L19.2239 24.8965Z" fill="#7B95B0"/>
    <path d="M19.106 25.7041L14.4067 22.3559L14.4382 22.1416L19.1374 25.4898L19.106 25.7041Z" fill="#7B95B0"/>
    <path d="M36.9455 13.1638L36.686 13.5491L35.4473 15.3854L34.9046 16.1895L20.8876 8.09923C20.8738 8.0894 20.8581 8.0835 20.8443 8.07367C20.6536 7.94784 20.5396 7.71388 20.5396 7.38752C20.5396 6.91763 20.7755 6.36714 21.1353 5.91102C21.3555 5.62987 21.6249 5.38411 21.9159 5.21503C22.0634 5.13049 22.2049 5.07151 22.3367 5.04005C22.5962 4.97321 22.8203 5.00073 22.9875 5.10887L36.9436 13.1638H36.9455Z" fill="#E0A558"/>
    <path d="M23.2678 6.50137C23.2678 6.50137 23.252 6.50137 23.2442 6.49744L22.5501 6.23792C22.5147 6.22416 22.497 6.18484 22.5108 6.15141C22.5245 6.11603 22.5619 6.09833 22.5993 6.11209L23.2914 6.37161C23.3267 6.38537 23.3444 6.42469 23.3307 6.45812C23.3208 6.48564 23.2953 6.50137 23.2678 6.50137Z" fill="#C9944F"/>
    <path d="M24.0549 7.79479C24.0431 7.79479 24.0333 7.79282 24.0235 7.78693C23.817 7.67683 23.6243 7.53724 23.4552 7.37602C23.4277 7.35046 23.4277 7.30721 23.4533 7.27969C23.4788 7.25216 23.5221 7.25216 23.5496 7.27772C23.7108 7.43107 23.8917 7.5628 24.0883 7.667C24.1218 7.68469 24.1336 7.72598 24.1159 7.7594C24.1041 7.78299 24.0805 7.79479 24.0569 7.79479H24.0549Z" fill="#C9944F"/>
    <path d="M22.2732 7.70465C22.2614 7.70465 22.2477 7.70072 22.2378 7.69482L21.6873 7.3488C21.6558 7.32914 21.646 7.28785 21.6657 7.25443C21.6853 7.22297 21.7286 7.21314 21.76 7.2328L22.3106 7.57882C22.342 7.59848 22.3519 7.63977 22.3322 7.67319C22.3184 7.69285 22.2968 7.70465 22.2752 7.70465H22.2732Z" fill="#C9944F"/>
    <path d="M24.4869 9.07113C24.4751 9.07113 24.4633 9.06719 24.4515 9.0613L23.9187 8.7428C23.8872 8.72314 23.8754 8.68185 23.8951 8.65039C23.9148 8.61893 23.9561 8.60714 23.9875 8.6268L24.5204 8.94727C24.5518 8.96693 24.5636 9.00821 24.544 9.03967C24.5322 9.0613 24.5086 9.07309 24.485 9.07309L24.4869 9.07113Z" fill="#C9944F"/>
    <path d="M25.891 8.26803C25.8772 8.26803 25.8635 8.2641 25.8517 8.25624L25.2087 7.80798C25.1773 7.78635 25.1714 7.74506 25.191 7.71361C25.2127 7.68215 25.2539 7.67625 25.2854 7.69591L25.9284 8.14417C25.9598 8.1658 25.9657 8.20709 25.9461 8.23854C25.9323 8.2582 25.9126 8.26803 25.891 8.26803Z" fill="#C9944F"/>
    <path d="M28.1739 9.63303C28.1602 9.63303 28.1464 9.62909 28.1346 9.62123C27.8849 9.44625 27.6116 9.30863 27.3226 9.21229C27.2872 9.20049 27.2675 9.16117 27.2793 9.12578C27.2911 9.09039 27.3304 9.07073 27.3658 9.08253C27.6667 9.18477 27.9517 9.32829 28.2113 9.50916C28.2427 9.53079 28.2486 9.57208 28.229 9.60353C28.2152 9.62319 28.1956 9.63303 28.1739 9.63303Z" fill="#C9944F"/>
    <path d="M25.9917 9.38358C25.9799 9.38358 25.9661 9.37964 25.9543 9.37375L25.5926 9.14372C25.5611 9.12406 25.5513 9.0808 25.5709 9.04935C25.5906 9.01789 25.6339 9.00806 25.6653 9.02772L26.0271 9.25775C26.0586 9.27741 26.0684 9.32066 26.0487 9.35212C26.035 9.37178 26.0133 9.38358 25.9917 9.38358Z" fill="#C9944F"/>
    <path d="M27.3443 10.7322C27.3443 10.7322 27.3325 10.7322 27.3266 10.7303C27.1162 10.6733 26.9117 10.5927 26.721 10.4904C26.6876 10.4727 26.6758 10.4314 26.6935 10.398C26.7112 10.3646 26.7525 10.3528 26.7859 10.3705C26.9688 10.4688 27.1634 10.5455 27.362 10.5986C27.3974 10.6084 27.419 10.6457 27.4092 10.6811C27.4013 10.7106 27.3738 10.7322 27.3443 10.7322Z" fill="#C9944F"/>
    <path d="M28.7248 11.068C28.7248 11.068 28.7071 11.068 28.6992 11.064C28.4436 10.9618 28.1998 10.8301 27.9737 10.6708C27.9422 10.6492 27.9363 10.6059 27.9579 10.5764C27.9796 10.545 28.0228 10.5391 28.0523 10.5607C28.2686 10.7141 28.5045 10.8399 28.7503 10.9382C28.7857 10.952 28.8014 10.9913 28.7877 11.0267C28.7778 11.0542 28.7523 11.0699 28.7248 11.0699V11.068Z" fill="#C9944F"/>
    <path d="M30.1108 11.1209C30.099 11.1209 30.0872 11.1189 30.0774 11.1111C29.8139 10.9597 29.5681 10.7788 29.342 10.5743C29.3145 10.5488 29.3125 10.5055 29.3381 10.478C29.3636 10.4505 29.4069 10.4485 29.4344 10.4741C29.6527 10.6726 29.8906 10.8456 30.1462 10.9931C30.1796 11.0128 30.1894 11.054 30.1717 11.0855C30.1599 11.1071 30.1363 11.1189 30.1128 11.1189L30.1108 11.1209Z" fill="#C9944F"/>
    <path d="M29.6503 9.96905C29.6365 9.96905 29.6227 9.96512 29.609 9.95528L29.3435 9.76065C29.314 9.73902 29.3062 9.69577 29.3298 9.66628C29.3514 9.63678 29.3946 9.62892 29.4241 9.65251L29.6896 9.84715C29.7191 9.86878 29.7269 9.91203 29.7033 9.94152C29.6896 9.95922 29.6699 9.96905 29.6483 9.96905H29.6503Z" fill="#C9944F"/>
    <path d="M30.5036 12.4086C30.4878 12.4086 30.4741 12.4027 30.4603 12.3929C30.185 12.1687 29.8822 11.978 29.5618 11.8247C29.5283 11.8089 29.5126 11.7677 29.5303 11.7342C29.546 11.7008 29.5873 11.6871 29.6207 11.7028C29.9511 11.8601 30.2637 12.0567 30.5468 12.2867C30.5763 12.3103 30.5802 12.3535 30.5567 12.383C30.5429 12.3988 30.5232 12.4086 30.5036 12.4086Z" fill="#C9944F"/>
    <path d="M31.7135 11.0344C31.6997 11.0344 31.684 11.0305 31.6722 11.0207C31.4303 10.8319 31.1747 10.6569 30.9093 10.5036C30.8778 10.4839 30.866 10.4426 30.8837 10.4112C30.9034 10.3778 30.9447 10.3679 30.9762 10.3856C31.2455 10.5429 31.509 10.7198 31.7548 10.9125C31.7843 10.9361 31.7902 10.9794 31.7666 11.0089C31.7528 11.0266 31.7331 11.0344 31.7135 11.0344Z" fill="#C9944F"/>
    <path d="M35.4483 15.3855L34.9056 16.1896L20.8885 8.09935C20.8748 8.08952 20.8591 8.08362 20.8453 8.07379C20.6546 7.94796 20.5405 7.714 20.5405 7.38764C20.5405 6.91775 20.7765 6.36726 21.1363 5.91113L21.1677 5.92293L35.1002 13.9818L35.4483 15.3836V15.3855Z" fill="#C28A42"/>
    <path d="M36.9448 13.1638L36.6852 13.5491L22.3398 5.11281C22.3398 5.08725 22.3398 5.06169 22.3398 5.0381C22.5994 4.97126 22.8235 4.99878 22.9907 5.10691L36.9467 13.1618L36.9448 13.1638Z" fill="#C28A42"/>
    <path d="M23.8442 8.16012L22.0294 10.8536L21.8052 11.1878L21.5103 11.0168L7.78624 3.09557C7.77247 3.0877 7.75674 3.07984 7.74495 3.07197C7.55422 2.94418 7.44019 2.71219 7.44019 2.38386C7.44019 2.15973 7.49327 1.9179 7.58962 1.67804C7.74691 1.275 8.01825 0.875896 8.35054 0.56526C8.49603 0.427636 8.65333 0.305741 8.81849 0.21137C9.24909 -0.0363522 9.63643 -0.0599448 9.8881 0.10717L23.8442 8.16012Z" fill="#E0A558"/>
    <path d="M24.1648 8.85754C24.1648 9.61841 23.5474 10.5916 22.7865 11.03C22.0256 11.4685 21.4082 11.2089 21.4082 10.4481C21.4082 9.68722 22.0256 8.71402 22.7865 8.27559C23.5474 7.83716 24.1648 8.09668 24.1648 8.85754Z" fill="#FBB03B"/>
    <path d="M23.8442 8.16012L22.0294 10.8536L21.5083 11.0168L7.78624 3.09557C7.77247 3.0877 7.75674 3.07984 7.74495 3.07197C7.55422 2.94418 7.44019 2.71219 7.44019 2.38386C7.44019 2.38386 20.714 10.9637 21.7915 9.27487C22.3656 8.37048 23.1147 8.12473 23.1147 8.12473L8.81849 0.21137C9.24909 -0.0363522 9.63643 -0.0599448 9.8881 0.10717L23.8442 8.16012Z" fill="#C9944F"/>
    <path d="M47.9779 22.0992L45.939 25.123L21.7587 11.1542C21.7449 11.1463 21.7292 11.1404 21.7174 11.1306C21.6486 11.0853 21.5896 11.0264 21.5443 10.9556C21.4578 10.8278 21.4106 10.6548 21.4106 10.4444C21.4106 9.68355 22.028 8.71036 22.7889 8.27193C23.2215 8.02224 23.6089 8.00061 23.8605 8.16576L25.0127 8.83225L47.9779 22.0992Z" fill="#E6E6E6"/>
    <path d="M46.7602 21.429L44.7213 24.4528L24.4478 12.7411C24.434 12.7332 21.5535 11.0876 21.5083 11.0149C21.408 10.4486 21.0227 9.37714 22.6487 9.37714C24.5638 9.37714 23.793 8.16016 23.793 8.16016L46.7583 21.4271L46.7602 21.429Z" fill="#D3D3D3"/>
    <path d="M32.3656 8.13675L14.0701 18.6984L6.56909 13.3468L15.9184 7.94801C16.3824 7.69439 17.1237 7.71601 17.5385 8.00109L18.4469 8.61843L20.5291 10.0379C21.001 10.3584 21.8465 10.378 22.3636 10.0812L26.6066 7.63147C27.049 7.37589 27.0942 6.97088 26.7128 6.68384L24.8017 5.24665L23.5728 4.32261C23.2366 4.07095 23.2739 3.71117 23.6573 3.48114L24.8646 2.78516L26.8937 4.23414L32.3656 8.13871V8.13675Z" fill="#ECA2B0"/>
    <path d="M17.5385 8.00101L18.4469 8.61835C17.5936 9.10396 16.7166 9.6171 15.8378 10.1519C10.2557 13.5413 14.0701 18.6983 14.0701 18.6983L6.56909 13.3467L15.9184 7.94793C16.3824 7.6943 17.1237 7.71593 17.5385 8.00101Z" fill="#F5B7C3"/>
    <path d="M26.8937 4.23218C26.8937 4.23218 26.0954 4.59983 24.7997 5.2447L23.5708 4.32066C23.2346 4.069 23.272 3.70921 23.6554 3.47919L24.8626 2.7832L26.8917 4.23218H26.8937Z" fill="#F5B7C3"/>
    <path d="M7.59009 1.67821C7.74738 1.27517 8.01872 0.876066 8.35101 0.56543C10.1265 1.57401 19.3145 6.79978 19.4659 7.10058C19.6331 7.42891 20.9347 9.59747 7.59009 1.67821Z" fill="#EAB269"/>
    <path d="M32.3648 8.13672L36.022 10.7457L46.5274 18.2442L54.0461 23.6076L54.4 23.8592L54.752 24.1109L55.1039 24.3625L55.5876 24.7066L37.2921 35.2702L36.8399 34.9438L36.486 34.6922L36.134 34.4385L35.7821 34.1889L33.6468 32.6711L23.1414 25.1726L14.0674 18.6983L32.3648 8.13672Z" fill="white"/>
    <path d="M26.1779 11.6426L26.9388 12.1872L29.6423 14.1139L28.2444 16.9706L24.1842 17.2655L23.0929 16.4869L20.7197 14.7942L26.1779 11.6426Z" fill="#FFE347"/>
    <path d="M36.0224 10.748L46.5278 18.2446L33.6472 32.6715L23.1418 25.173L36.0224 10.748Z" fill="#E56274"/>
    <path d="M41.2314 17.7645C44.5975 19.7069 44.5975 22.8585 41.2314 24.801C37.8653 26.7434 32.409 26.7434 29.0429 24.801C25.6768 22.8585 25.6768 19.7069 29.0429 17.7645C32.409 15.822 37.8653 15.822 41.2314 17.7645Z" fill="#FFE347"/>
    <path d="M37.8688 16.2916C37.5876 16.2385 37.3005 16.1953 37.0135 16.1579C34.8821 15.8925 32.6131 16.0871 30.6843 16.7379C30.0492 16.9542 29.4515 17.2176 28.9088 17.5302C27.1943 18.5191 26.2485 19.8521 26.2485 21.2814C26.2485 21.4132 26.2584 21.5429 26.2721 21.6727C26.4255 22.9545 27.3496 24.1361 28.9088 25.0366C29.1349 25.1683 29.3709 25.2883 29.6147 25.4023C29.6913 25.4377 29.7661 25.4731 29.8447 25.5065C30.7728 25.9095 31.8109 26.1946 32.8923 26.3558C32.9552 26.3676 33.0221 26.3774 33.0889 26.3853C33.7614 26.4777 34.4476 26.5229 35.1377 26.5229C36.7736 26.5229 38.4134 26.2614 39.8448 25.7385C40.3875 25.5399 40.8987 25.3059 41.3666 25.0346C43.0831 24.0437 44.0269 22.7127 44.0269 21.2795C44.0269 21.2087 44.0269 21.1399 44.0151 21.073C43.9778 20.4301 43.7457 19.8128 43.3387 19.2387C42.8865 18.6037 42.2219 18.0237 41.3647 17.5282C40.3501 16.9424 39.1488 16.5295 37.8668 16.2896L37.8688 16.2916ZM43.4488 21.7081C43.2758 22.7776 42.4559 23.7803 41.0953 24.5647C40.9675 24.6375 40.8417 24.7063 40.708 24.7731C39.4752 25.4023 37.9966 25.7876 36.4629 25.9252C36.1425 25.9547 35.82 25.9744 35.4956 25.9823C33.8066 26.0236 32.0999 25.7739 30.6194 25.2312C30.4188 25.1565 30.2183 25.0779 30.0276 24.9914C29.7346 24.8616 29.4515 24.7201 29.1821 24.5647C27.6406 23.6761 26.7932 22.5102 26.7932 21.2814C26.7932 21.2146 26.7932 21.1477 26.801 21.0829C26.8875 19.9308 27.7252 18.8416 29.1821 18.0001C29.4043 17.8723 29.6363 17.7524 29.8781 17.6403C31.4098 16.9306 33.2738 16.5767 35.1358 16.5767C35.8279 16.5767 36.518 16.6258 37.1944 16.7241C37.2514 16.732 37.3123 16.7418 37.3694 16.7517C37.625 16.791 37.8747 16.8362 38.1204 16.8912C38.1794 16.903 38.2384 16.9148 38.2935 16.9286C38.5805 16.9954 38.8617 17.0702 39.137 17.1586C39.2353 17.1881 39.3336 17.2196 39.4299 17.253C40.0218 17.4575 40.5821 17.7052 41.0933 18.0001C42.6348 18.8888 43.4823 20.0546 43.4823 21.2814C43.4823 21.423 43.4705 21.5665 43.4469 21.7081H43.4488Z" fill="white"/>
    <path d="M9.68895 1.96926C9.68895 1.96926 9.67912 1.96926 9.67519 1.96533C9.49626 1.84343 9.29964 1.75496 9.08926 1.70778C9.06763 1.70188 9.046 1.69795 9.02831 1.70384C9.01651 1.70581 9.00274 1.69991 9.00078 1.68812C8.99685 1.67632 9.00471 1.66452 9.01651 1.66059C9.04404 1.65273 9.07353 1.66059 9.09909 1.66452C9.31537 1.71367 9.51789 1.80411 9.70075 1.92994C9.71058 1.9378 9.71451 1.95157 9.70664 1.9614C9.70271 1.9673 9.69485 1.97123 9.68895 1.97123V1.96926Z" fill="#C9944F"/>
    <path d="M10.6407 3.22314C10.6407 3.22314 10.6329 3.22314 10.6289 3.22117C10.4657 3.12877 10.2947 3.04423 10.1236 2.96952C10.1118 2.96362 10.1079 2.95183 10.1118 2.94003C10.1177 2.92823 10.1295 2.9243 10.1413 2.92823C10.3143 3.00294 10.4854 3.08945 10.6506 3.18185C10.6624 3.18775 10.6643 3.20151 10.6584 3.21331C10.6545 3.22117 10.6466 3.22511 10.6388 3.22511L10.6407 3.22314Z" fill="#C9944F"/>
    <path d="M13.856 4.54648C13.856 4.54648 13.852 4.54648 13.8501 4.54648C13.6102 4.47964 13.3821 4.3774 13.1698 4.23978C13.1599 4.23388 13.156 4.21815 13.1639 4.20832C13.1717 4.19849 13.1855 4.19456 13.1953 4.20243C13.4037 4.33808 13.6279 4.43835 13.8619 4.50323C13.8737 4.50716 13.8815 4.51896 13.8776 4.53076C13.8756 4.54059 13.8658 4.54648 13.856 4.54648Z" fill="#C9944F"/>
    <path d="M14.969 4.39487C14.969 4.39487 14.9612 4.39487 14.9573 4.3929L14.4618 4.11373C14.45 4.10783 14.448 4.09406 14.4539 4.08227C14.4598 4.07047 14.4736 4.06654 14.4854 4.0744L14.9808 4.35358C14.9926 4.35948 14.9946 4.37324 14.9887 4.38504C14.9848 4.3929 14.9769 4.39684 14.969 4.39684V4.39487Z" fill="#C9944F"/>
    <path d="M14.9191 5.19935C14.9191 5.19935 14.9132 5.19935 14.9112 5.19935C14.8365 5.17183 14.7697 5.12464 14.7166 5.06763C14.7087 5.0578 14.7087 5.04404 14.7166 5.03617C14.7264 5.02831 14.7402 5.02831 14.7481 5.03617C14.7972 5.08925 14.8582 5.13054 14.925 5.1561C14.9368 5.16003 14.9427 5.17379 14.9388 5.18559C14.9348 5.19542 14.927 5.19935 14.9171 5.19935H14.9191Z" fill="#C9944F"/>
    <path d="M12.3814 4.84736C12.3814 4.84736 12.3755 4.84736 12.3716 4.84539L11.8683 4.6016C11.8565 4.5957 11.8525 4.58194 11.8584 4.57211C11.8643 4.56031 11.8781 4.55638 11.8879 4.56228L12.3913 4.80607C12.4031 4.81197 12.407 4.82573 12.4011 4.83556C12.3972 4.84343 12.3893 4.84736 12.3814 4.84736Z" fill="#C9944F"/>
    <path d="M11.858 2.71829C11.858 2.71829 11.854 2.71829 11.8521 2.71829C11.6928 2.67897 11.5434 2.60033 11.4176 2.49613C11.4077 2.48826 11.4077 2.4745 11.4156 2.46467C11.4235 2.45484 11.4372 2.45484 11.447 2.4627C11.567 2.56494 11.7105 2.63768 11.8639 2.677C11.8757 2.68094 11.8835 2.69273 11.8796 2.70453C11.8776 2.71436 11.8678 2.72222 11.858 2.72222V2.71829Z" fill="#C9944F"/>
    <path d="M8.81215 2.69859C8.81215 2.69859 8.80625 2.69859 8.80429 2.69859C8.5998 2.62191 8.41105 2.51574 8.23999 2.38009C8.23016 2.37222 8.22819 2.35846 8.23605 2.34863C8.24392 2.3388 8.25768 2.33683 8.26751 2.3447C8.43464 2.47642 8.62143 2.58062 8.82002 2.65533C8.83181 2.65926 8.83771 2.67303 8.83378 2.68482C8.82985 2.69465 8.82198 2.69859 8.81215 2.69859Z" fill="#C9944F"/>
    <path d="M14.54 5.92246C14.54 5.92246 14.5322 5.92246 14.5283 5.91853L14.0721 5.61576C14.0623 5.60789 14.0583 5.59413 14.0662 5.5843C14.0741 5.57447 14.0878 5.57054 14.0977 5.5784L14.5538 5.88117C14.5636 5.88904 14.5676 5.9028 14.5597 5.91263C14.5558 5.91853 14.5479 5.92246 14.54 5.92246Z" fill="#C9944F"/>
    <path d="M16.2196 6.26862C16.2196 6.26862 16.2137 6.26862 16.2117 6.26862C16.0584 6.21161 15.9109 6.13493 15.7752 6.04056C15.7654 6.0327 15.7615 6.01894 15.7693 6.0091C15.7772 5.99927 15.7909 5.99534 15.8008 6.00321C15.9325 6.09561 16.076 6.17032 16.2274 6.22537C16.2392 6.2293 16.2451 6.24307 16.2412 6.25486C16.2373 6.26469 16.2294 6.26862 16.2196 6.26862Z" fill="#C9944F"/>
    <path d="M17.6019 6.34342C17.6019 6.34342 17.596 6.34342 17.5921 6.34146L17.2638 6.19204C17.252 6.18614 17.248 6.17434 17.252 6.16255C17.2579 6.15075 17.2697 6.14485 17.2815 6.15075L17.6098 6.30017C17.6216 6.30607 17.6255 6.31787 17.6216 6.32966C17.6177 6.33753 17.6098 6.34342 17.6019 6.34342Z" fill="#C9944F"/>
    <path d="M19.1825 6.76238C19.1825 6.76238 19.1785 6.76238 19.1766 6.76238C19.0016 6.70733 18.8325 6.62869 18.6771 6.52842C18.6673 6.52252 18.6634 6.50679 18.6693 6.49696C18.6752 6.48713 18.6909 6.4832 18.7007 6.4891C18.8521 6.5874 19.0173 6.66408 19.1884 6.71716C19.2001 6.72109 19.206 6.73289 19.2041 6.74469C19.2001 6.75452 19.1923 6.76041 19.1825 6.76041V6.76238Z" fill="#C9944F"/>
    <path d="M18.4562 7.60734C18.4562 7.60734 18.4503 7.60734 18.4484 7.60734C18.1593 7.50117 17.8959 7.34192 17.6658 7.13942C17.656 7.13155 17.656 7.11582 17.6658 7.10796C17.6737 7.09813 17.6874 7.09813 17.6973 7.10796C17.9234 7.3085 18.181 7.46185 18.4641 7.56801C18.4759 7.57195 18.4818 7.58571 18.4779 7.59751C18.4739 7.60734 18.4661 7.61323 18.4562 7.61323V7.60734Z" fill="#C9944F"/>
    <path d="M20.7123 8.63988C20.7123 8.63988 20.7083 8.63988 20.7044 8.63988C20.3957 8.53568 20.0949 8.40395 19.8118 8.24274C19.8 8.23684 19.796 8.22308 19.8039 8.21128C19.8098 8.19948 19.8236 8.19752 19.8354 8.20342C20.1165 8.3607 20.4154 8.49439 20.7201 8.59663C20.7319 8.60056 20.7378 8.61432 20.7339 8.62612C20.73 8.63595 20.7221 8.64185 20.7123 8.64185V20.7123 8.63988Z" fill="#C9944F"/>
    <path d="M21.6662 8.29793C21.6662 8.29793 21.6603 8.29793 21.6563 8.29596C21.3712 8.16424 21.0901 8.01679 20.8207 7.85557C20.8109 7.84967 20.8069 7.83591 20.8128 7.82411C20.8187 7.81428 20.8325 7.81035 20.8443 7.81625C21.1117 7.97746 21.3909 8.12492 21.674 8.25468C21.6858 8.26058 21.6898 8.27434 21.6858 8.28417C21.6819 8.29203 21.674 8.29793 21.6662 8.29793Z" fill="#C9944F"/>
    <path d="M16.581 5.14994C16.581 5.14994 16.5751 5.14994 16.5712 5.14797C16.3175 5.03197 16.0737 4.88845 15.8456 4.72134C15.8358 4.71347 15.8338 4.69971 15.8397 4.68988C15.8476 4.68005 15.8614 4.67808 15.8712 4.68398C16.0973 4.84913 16.3392 4.99069 16.5889 5.10668C16.6007 5.11258 16.6046 5.12438 16.6007 5.13617C16.5967 5.14404 16.5889 5.14994 16.581 5.14994Z" fill="#C9944F"/>
    <path d="M10.7391 1.4463C10.7391 1.4463 10.7293 1.4463 10.7253 1.44237L10.5779 1.32637C10.568 1.31851 10.5661 1.30475 10.5739 1.29492C10.5818 1.28509 10.5956 1.28312 10.6054 1.29099L10.7529 1.40698C10.7529 1.40698 10.7647 1.42861 10.7568 1.43844C10.7529 1.44434 10.745 1.4463 10.7391 1.4463Z" fill="#C9944F"/>
    <path d="M13.4599 3.39443C13.4599 3.39443 13.4481 3.39246 13.4442 3.38853C13.4107 3.35314 13.3675 3.32758 13.3203 3.31185C13.3085 3.30792 13.3026 3.29613 13.3046 3.28433C13.3085 3.27253 13.3223 3.26467 13.3321 3.2686C13.3852 3.2863 13.4343 3.31579 13.4737 3.35707C13.4815 3.3669 13.4815 3.38067 13.4737 3.38853C13.4697 3.39246 13.4638 3.39443 13.4579 3.39443H13.4599Z" fill="#C9944F"/>
    <path d="M12.3808 3.8036C12.3808 3.8036 12.3729 3.8036 12.369 3.79966L11.6808 3.39073C11.671 3.38483 11.667 3.37106 11.6729 3.35927C11.6788 3.34944 11.6926 3.34551 11.7044 3.3514L12.3926 3.76034C12.4024 3.76624 12.4063 3.78 12.4004 3.7918C12.3965 3.79966 12.3886 3.8036 12.3808 3.8036Z" fill="#C9944F"/>
    <g style="mix-blend-mode:multiply">
        <path d="M6.01109 17.1113L9.39885 21.6903L8.57304 22.2172L5.92261 17.711L6.01109 17.1113Z" fill="#BAA49D"/>
    </g>
    <path d="M14.0679 18.6983L13.4447 19.0974L6.56689 13.9503V13.3467L14.0679 18.6983Z" fill="#DE8A95"/>
    <path d="M2.81407 12.4238L3.56516 13.6998L0.411377 19.0553L2.81407 12.4238Z" fill="#F08493"/>
</svg>